<svg width="64" height="64" viewBox="0 0 64 64" fill="none" xmlns="http://www.w3.org/2000/svg">
<g clip-path="url(#clip0_1599_4142)">
<path d="M11.2563 49.4937C10.3604 49.4937 9.49902 49.7173 8.73486 50.1372C4.70947 44.9771 2.5 38.5669 2.5 32C2.5 15.7334 15.7334 2.5 32 2.5C33.9775 2.5 35.9541 2.69678 37.875 3.08496C38.5508 3.22168 39.2109 2.78418 39.3477 2.10742C39.4844 1.43066 39.0469 0.771484 38.3701 0.634277C36.2866 0.213379 34.1436 0 32 0C23.4526 0 15.4165 3.32861 9.37256 9.37256C3.32861 15.4165 0 23.4526 0 32C0 39.1899 2.44141 46.2065 6.88623 51.8315C6.31396 52.6865 6.00635 53.6914 6.00635 54.7437C6.00635 56.146 6.55273 57.4644 7.54443 58.4556C8.53564 59.4473 9.854 59.9937 11.2563 59.9937C12.6587 59.9937 13.9771 59.4473 14.9688 58.4556C15.9604 57.4644 16.5063 56.1455 16.5063 54.7432C16.5063 53.3413 15.9604 52.0225 14.9688 51.0312C13.9771 50.0396 12.6587 49.4937 11.2563 49.4937ZM13.2007 56.688C12.6816 57.2075 11.9907 57.4937 11.2563 57.4937C10.522 57.4937 9.83154 57.2075 9.31201 56.688C8.79248 56.1685 8.50635 55.478 8.50635 54.7437C8.50635 54.0088 8.79248 53.3184 9.31201 52.7988C9.83105 52.2793 10.522 51.9937 11.2563 51.9937C11.9907 51.9937 12.6812 52.2798 13.2007 52.7988C13.7202 53.3184 14.0063 54.0088 14.0063 54.7437C14.0063 55.478 13.7202 56.1685 13.2007 56.688Z" fill="#00E889"/>
<path d="M57.1129 12.167C58.4717 10.1284 58.2535 7.34131 56.4561 5.54395C55.4644 4.55273 54.1461 4.00635 52.7437 4.00635C51.3414 4.00635 50.023 4.55273 49.0313 5.54395C48.0396 6.53564 47.4937 7.854 47.4937 9.25635C47.4937 10.6587 48.0396 11.9771 49.0313 12.9688C50.023 13.9604 51.3414 14.5063 52.7437 14.5063C53.6397 14.5063 54.501 14.2827 55.2652 13.8628C59.2906 19.0234 61.5001 25.4331 61.5001 32C61.5001 48.2666 48.2667 61.5 32.0001 61.5C30.0421 61.5 28.084 61.3071 26.1812 60.9263C25.5045 60.791 24.8458 61.23 24.71 61.9067C24.5748 62.584 25.0137 63.2422 25.6905 63.3779C27.7545 63.7905 29.8775 64 32.0001 64C40.5474 64 48.5836 60.6714 54.6275 54.6274C60.6714 48.5835 64.0001 40.5474 64.0001 32C64.0001 24.8096 61.5582 17.7925 57.1129 12.167ZM50.7994 11.2012C50.2798 10.6816 49.9937 9.99121 49.9937 9.25635C49.9937 8.52197 50.2798 7.83154 50.7994 7.31201C51.3184 6.79248 52.0093 6.50635 52.7437 6.50635C53.4781 6.50635 54.169 6.79248 54.6885 7.31201C55.7603 8.38428 55.7603 10.1289 54.6885 11.2012C54.169 11.7202 53.4781 12.0063 52.7437 12.0063C52.0088 12.0063 51.3184 11.7202 50.7994 11.2012Z" fill="#00E889"/>
<path d="M26.8418 53.5C26.8418 54.1904 27.4019 54.75 28.0918 54.75H35.9077C36.5981 54.75 37.1577 54.1904 37.1577 53.5V51.0767C38.8013 50.6343 40.3726 49.9829 41.8491 49.1323L43.5601 50.8433C43.7944 51.0776 44.1123 51.2095 44.4443 51.2095C44.7754 51.2095 45.0938 51.0776 45.3281 50.8428L50.8525 45.3145C51.3403 44.8262 51.3403 44.0347 50.8525 43.5469L49.1436 41.8379C49.9941 40.3613 50.6455 38.79 51.0879 37.1465H53.502C54.1924 37.1465 54.752 36.5869 54.752 35.8965V28.0806C54.752 27.3901 54.1924 26.8306 53.502 26.8306H51.0874C50.645 25.1875 49.9941 23.6162 49.1436 22.1396L50.8433 20.4399C51.0776 20.2056 51.2095 19.8872 51.2095 19.5557C51.209 19.2241 51.0771 18.9058 50.8428 18.6714L45.314 13.147C44.8262 12.6592 44.0347 12.6592 43.5464 13.1475L41.8491 14.8452C40.3726 13.9946 38.8013 13.3433 37.1577 12.9009V10.5C37.1577 9.80957 36.5981 9.25 35.9077 9.25H28.0918C27.4019 9.25 26.8418 9.80957 26.8418 10.5V12.9014C25.1987 13.3433 23.6274 13.9946 22.1509 14.8452L20.4531 13.1475C19.9653 12.6597 19.1738 12.6592 18.6855 13.147L13.1572 18.6719C12.9224 18.9062 12.7905 19.2241 12.7905 19.5557C12.7905 19.8872 12.9224 20.2056 13.1567 20.4399L14.8564 22.1396C14.0059 23.6162 13.3545 25.187 12.9121 26.8306H10.5024C9.81201 26.8306 9.25244 27.3901 9.25244 28.0801L9.24805 35.896C9.24756 36.2275 9.3794 36.5459 9.61377 36.7803C9.84815 37.0146 10.166 37.1465 10.498 37.1465H12.9121C13.3545 38.79 14.0059 40.3613 14.8564 41.8379L13.1475 43.5469C12.6597 44.0347 12.6592 44.8262 13.1475 45.3145L18.6719 50.8428C18.9063 51.0771 19.2241 51.2095 19.5557 51.2095H19.5562C19.8877 51.2095 20.2056 51.0776 20.4399 50.8433L22.1504 49.1323C23.6274 49.9829 25.1987 50.6343 26.8418 51.0767V53.5ZM22.6406 46.5034C22.146 46.1836 21.4951 46.2529 21.0781 46.6694L19.5562 48.1914L15.7988 44.4312L17.3193 42.9102C17.7358 42.4937 17.8052 41.8428 17.4854 41.3481C16.3521 39.5942 15.5552 37.6719 15.1177 35.6338C14.9937 35.0581 14.4849 34.6465 13.8955 34.6465H11.7485L11.7515 29.3306H13.8955C14.4849 29.3306 14.9937 28.9194 15.1177 28.3433C15.5552 26.3057 16.3521 24.3833 17.4854 22.6294C17.8052 22.1348 17.7358 21.4839 17.3193 21.0674L15.8086 19.5562L19.5688 15.7988L21.0781 17.3086C21.4951 17.7251 22.1455 17.7939 22.6406 17.4746C24.394 16.3413 26.3164 15.5444 28.3545 15.1069C28.9302 14.9829 29.3418 14.4736 29.3418 13.8848V11.75H34.6577V13.8843C34.6577 14.4736 35.0688 14.9829 35.645 15.1064C37.6826 15.5444 39.6055 16.3408 41.3589 17.4741C41.8535 17.7939 42.5044 17.7251 42.9209 17.3081L44.4307 15.7988L48.1909 19.5562L46.6802 21.0669C46.2632 21.4839 46.1943 22.1348 46.5142 22.6294C47.6475 24.3833 48.4438 26.3057 48.8818 28.3433C49.0054 28.9194 49.5146 29.3306 50.104 29.3306H52.252V34.6465H50.104C49.5146 34.6465 49.0059 35.0581 48.8818 35.6338C48.4443 37.6714 47.6475 39.5942 46.5142 41.3477C46.1943 41.8428 46.2637 42.4937 46.6802 42.9102L48.2007 44.4307L44.4434 48.1909L42.9214 46.6694C42.5044 46.2524 41.8535 46.1836 41.3589 46.5034C39.605 47.6367 37.6826 48.4331 35.645 48.8711C35.0688 48.9951 34.6577 49.5039 34.6577 50.0933V52.25H29.3418V50.0933C29.3418 49.5044 28.9302 48.9951 28.3545 48.8711C26.3169 48.4336 24.3945 47.6367 22.6406 46.5034Z" fill="#00E889"/>
<path d="M42.3286 32C42.3286 26.3047 37.6953 21.6714 32 21.6714C26.3047 21.6714 21.6714 26.3047 21.6714 32C21.6714 37.6953 26.3047 42.3286 32 42.3286C37.6953 42.3286 42.3286 37.6953 42.3286 32ZM24.1714 32C24.1714 27.6831 27.6831 24.1714 32 24.1714C36.3169 24.1714 39.8286 27.6836 39.8286 32C39.8286 36.3164 36.3169 39.8286 32 39.8286C27.6831 39.8286 24.1714 36.3169 24.1714 32Z" fill="#00E889"/>
<path d="M43.5098 4.72754C43.8389 4.72754 44.1611 4.59375 44.3936 4.36133C44.626 4.12744 44.7598 3.80518 44.7598 3.47607C44.7598 3.14893 44.6265 2.82617 44.3936 2.59229C44.1611 2.35986 43.8389 2.22607 43.5098 2.22607C43.1797 2.22607 42.8589 2.35986 42.6265 2.59229C42.3936 2.82617 42.2598 3.14746 42.2598 3.47607C42.2598 3.80615 42.3936 4.12744 42.6265 4.36133C42.8589 4.59375 43.1797 4.72754 43.5098 4.72754Z" fill="#00E889"/>
<path d="M20.5449 59.2949C20.2163 59.2949 19.8936 59.4287 19.6611 59.6611C19.4287 59.8936 19.2949 60.2163 19.2949 60.5449C19.2949 60.875 19.4287 61.1963 19.6611 61.4287C19.8936 61.6611 20.2163 61.7949 20.5449 61.7949C20.8735 61.7949 21.1963 61.6611 21.4287 61.4287C21.6611 61.1963 21.7949 60.8735 21.7949 60.5449C21.7949 60.2163 21.6611 59.8936 21.4287 59.6611C21.1963 59.4287 20.8735 59.2949 20.5449 59.2949Z" fill="#00E889"/>
</g>
<defs>
<clipPath id="clip0_1599_4142">
<rect width="64" height="64" fill="white"/>
</clipPath>
</defs>
</svg>
