<svg width="64" height="64" viewBox="0 0 64 64" fill="none" xmlns="http://www.w3.org/2000/svg">
<path d="M31.9818 49.3478C41.5547 49.3478 49.3151 41.5874 49.3151 32.0145C49.3151 22.4416 41.5547 14.6812 31.9818 14.6812C22.4088 14.6812 14.6484 22.4416 14.6484 32.0145C14.6484 41.5874 22.4088 49.3478 31.9818 49.3478Z" stroke="#00E889" stroke-width="4" stroke-linecap="round" stroke-linejoin="round"/>
<path d="M51.0453 51.0455L50.6986 50.6989M50.6986 13.3122L51.0453 12.9655L50.6986 13.3122ZM12.9653 51.0455L13.312 50.6989L12.9653 51.0455ZM32.0053 5.5522V5.33887V5.5522ZM32.0053 58.6722V58.4589V58.6722ZM5.55196 32.0055H5.33862H5.55196ZM58.672 32.0055H58.4586H58.672ZM13.312 13.3122L12.9653 12.9655L13.312 13.3122Z" stroke="#00E889" stroke-width="5.33333" stroke-linecap="round" stroke-linejoin="round"/>
</svg>
