<svg width="64" height="64" viewBox="0 0 64 64" fill="none" xmlns="http://www.w3.org/2000/svg">
<g clip-path="url(#clip0_1599_4173)">
<path d="M17.4159 19.6065H23.5395C23.564 19.6065 23.5885 19.6059 23.613 19.6044C26.2918 19.4478 28.5824 18.3893 30.4217 16.4584L33.2186 13.9311C33.7725 13.4291 34.0949 12.8121 34.2299 12.1526L42.2002 15.3323C43.1838 15.7253 44.0815 15.8965 44.8806 15.8965C46.799 15.8965 48.1488 14.9093 48.7484 13.6321C49.5488 11.9275 49.0702 9.39339 46.6065 8.05426L37.6366 3.18339C34.5792 1.52539 33.1768 0.948637 31.4816 1.05514H22.9219C21.5047 1.05514 20.7406 1.11401 19.423 1.67364L10.7731 4.90851V4.75089C10.7731 2.64789 9.00225 0.937012 6.8255 0.937012H3.94762C1.77087 0.937012 0 2.64789 0 4.75089V6.18376C0 6.87901 0.563625 7.44264 1.25888 7.44264C1.95412 7.44264 2.51775 6.87901 2.51775 6.18376V4.75089C2.51775 4.04839 3.1725 3.45476 3.9475 3.45476H6.8255C7.6005 3.45476 8.25525 4.04839 8.25525 4.75089V18.948C8.25525 19.6505 7.6005 20.2441 6.8255 20.2441H3.94762C3.17263 20.2441 2.51787 19.6505 2.51787 18.948V17.5044C2.51787 16.8091 1.95425 16.2455 1.259 16.2455C0.56375 16.2455 0 16.809 0 17.5043V18.9479C0 21.0509 1.77087 22.7618 3.94762 22.7618H6.82562C9.00237 22.7618 10.7732 21.0509 10.7732 18.9479V17.6019C12.6654 18.4564 15.5572 19.6065 17.4159 19.6065ZM20.3314 4.02176C20.3494 4.01501 20.3674 4.00776 20.3853 4.00014C21.293 3.61201 21.6764 3.57264 22.9217 3.57264H31.5234C31.5527 3.57264 31.5823 3.57164 31.6116 3.56964C32.6474 3.49739 33.5946 3.85526 36.4355 5.39614L45.4045 10.2664C46.5251 10.8755 46.7884 11.8821 46.4692 12.5618C46.0452 13.4646 44.7363 13.6341 43.1336 12.9939L33.7658 9.25676C33.571 8.87314 33.3299 8.51151 33.0499 8.18851C31.573 6.48514 28.9164 5.73376 26.3102 7.89464L22.3361 11.1894C21.8009 11.6331 21.7266 12.4268 22.1705 12.962C22.6141 13.4971 23.4078 13.5714 23.943 13.1276L27.9171 9.83289C29.5504 8.47889 30.6419 9.25464 31.1474 9.83764C31.801 10.5916 31.9824 11.6534 31.5291 12.064L28.6975 14.6225C28.6728 14.6449 28.6489 14.6681 28.6261 14.6924C27.2245 16.177 25.5479 16.9611 23.5014 17.0886H17.4158C15.9483 17.0886 12.8214 15.8135 10.773 14.8234V7.59664L20.3314 4.02176Z" fill="#00E889"/>
<path d="M26.1103 40.6644C27.9365 40.6644 29.4223 39.1779 29.4223 37.3509V34.8101C29.4223 32.7118 28.5906 30.7458 27.1141 29.2861C27.2724 28.7619 27.3584 28.2065 27.3584 27.6313C27.3584 24.4683 24.7866 21.895 21.6255 21.895C18.4664 21.895 15.8963 24.4683 15.8963 27.6313C15.8963 28.2065 15.9823 28.7619 16.1404 29.2863C14.6641 30.746 13.8325 32.7119 13.8325 34.8101V37.3509C13.8325 39.178 15.3183 40.6644 17.1444 40.6644H26.1103ZM21.6256 24.4126C23.3984 24.4126 24.8406 25.8565 24.8406 27.6313C24.8406 29.406 23.3984 30.8498 21.6256 30.8498C19.8548 30.8498 18.4141 29.4059 18.4141 27.6313C18.4141 25.8565 19.8548 24.4126 21.6256 24.4126ZM16.3504 37.3509V34.8101C16.3504 33.619 16.7491 32.4906 17.4694 31.5733C18.5143 32.677 19.9905 33.3675 21.6256 33.3675C23.2621 33.3675 24.7395 32.6768 25.785 31.5726C26.5055 32.4901 26.9045 33.6188 26.9045 34.8103V37.351C26.9045 37.7824 26.5409 38.1469 26.1103 38.1469H17.1445C16.714 38.1468 16.3504 37.7823 16.3504 37.3509Z" fill="#00E889"/>
<path d="M33.86 37.3509C33.86 39.178 35.3457 40.6644 37.1719 40.6644H46.1376C47.9639 40.6644 49.4496 39.1779 49.4496 37.3509V34.8101C49.4496 32.7118 48.618 30.7459 47.1416 29.2863C47.2997 28.7619 47.3857 28.2065 47.3857 27.6313C47.3857 24.4683 44.8156 21.895 41.6565 21.895C38.4954 21.895 35.9236 24.4683 35.9236 27.6313C35.9236 28.2065 36.0096 28.7619 36.1679 29.2863C34.6915 30.7459 33.8599 32.7119 33.8599 34.8103V37.3509H33.86ZM41.6566 24.4126C43.4275 24.4126 44.8681 25.8565 44.8681 27.6313C44.8681 29.406 43.4275 30.8498 41.6566 30.8498C39.8839 30.8498 38.4416 29.4059 38.4416 27.6313C38.4416 25.8565 39.8839 24.4126 41.6566 24.4126ZM41.6566 33.3675C43.2919 33.3675 44.7681 32.677 45.813 31.5731C46.5332 32.4905 46.932 33.619 46.932 34.8101V37.3509C46.932 37.7823 46.5684 38.1468 46.1377 38.1468H37.172C36.7416 38.1468 36.3779 37.7823 36.3779 37.3509V34.8101C36.3779 33.6188 36.7767 32.4901 37.4972 31.5726C38.5427 32.6768 40.0201 33.3675 41.6566 33.3675Z" fill="#00E889"/>
<path d="M60.0523 41.2378H57.1779C54.9992 41.2378 53.2268 42.9487 53.2268 45.0517V46.3977C51.3345 45.5433 48.4427 44.3932 46.584 44.3932H40.4604C40.4359 44.3932 40.4114 44.3938 40.3869 44.3953C37.7082 44.5519 35.4174 45.6105 33.5778 47.5417L30.7865 50.067C30.2315 50.5683 29.9083 51.185 29.7728 51.8445L21.799 48.6635C18.4538 47.3289 16.1 48.5572 15.2515 50.3667C14.4523 52.0707 14.9328 54.6037 17.3969 55.9418L26.3624 60.8122C29.1792 62.343 30.5924 62.9543 32.1237 62.9543C32.2545 62.9543 32.3863 62.9498 32.5198 62.941H41.078C42.5004 62.941 43.266 62.8827 44.5798 62.3263L53.2265 59.0912V59.2485C53.2265 61.3515 54.9989 63.0624 57.1777 63.0624H60.052C62.2288 63.0624 63.9997 61.3515 63.9997 59.2485V57.8157C63.9997 57.1204 63.436 56.5568 62.7408 56.5568C62.0455 56.5568 61.4819 57.1204 61.4819 57.8157V59.2485C61.4819 59.9512 60.8272 60.5447 60.0522 60.5447H57.1778C56.3875 60.5447 55.7445 59.9632 55.7445 59.2485V45.0517C55.7445 44.3369 56.3875 43.7555 57.1778 43.7555H60.0522C60.8272 43.7555 61.4819 44.3492 61.4819 45.0517V46.4953C61.4819 47.1905 62.0455 47.7542 62.7408 47.7542C63.436 47.7542 63.9999 47.1905 63.9999 46.4953V45.0517C63.9999 42.9487 62.229 41.2378 60.0523 41.2378ZM43.672 59.9778C43.6544 59.9844 43.637 59.9913 43.6197 59.9987C42.7154 60.384 42.3307 60.4232 41.0782 60.4232H32.4765C32.446 60.4232 32.4155 60.4243 32.3852 60.4264C31.3483 60.5017 30.4044 60.1433 27.5645 58.5997L18.5987 53.729C17.4772 53.12 17.2127 52.1142 17.5312 51.4354C17.9545 50.5328 19.2634 50.3625 20.8664 51.0019L30.2353 54.7394C30.429 55.1212 30.6687 55.4813 30.947 55.8029C31.7825 56.7688 32.9963 57.4295 34.3659 57.4295C35.4168 57.4295 36.5594 57.0404 37.6929 56.1015L41.667 52.8104C42.2025 52.3669 42.277 51.5733 41.8337 51.0379C41.3903 50.5025 40.5967 50.4278 40.0612 50.8713L36.087 54.1625C34.4497 55.5185 33.3568 54.7404 32.8513 54.1558C32.2004 53.4033 32.0207 52.3449 32.4752 51.9345L35.303 49.376C35.3275 49.3539 35.3512 49.3308 35.3738 49.3068C36.7755 47.822 38.4522 47.038 40.4985 46.9105H46.5842C48.0517 46.9105 51.1785 48.1857 53.2269 49.1758V56.4029L43.672 59.9778Z" fill="#00E889"/>
<path d="M1.25888 13.1049C1.95412 13.1049 2.51775 12.5396 2.51775 11.8443C2.51775 11.1491 1.95412 10.5854 1.25888 10.5854C0.563625 10.5854 0 11.1491 0 11.8443V11.8478C0 12.5431 0.563625 13.1049 1.25888 13.1049Z" fill="#00E889"/>
<path d="M62.7411 50.897C62.0458 50.897 61.4822 51.4606 61.4822 52.1558V52.1631C61.4822 52.8583 62.0458 53.4183 62.7411 53.4183C63.4363 53.4183 63.9999 52.8511 63.9999 52.1558C63.9999 51.4606 63.4363 50.897 62.7411 50.897Z" fill="#00E889"/>
</g>
<defs>
<clipPath id="clip0_1599_4173">
<rect width="64" height="64" fill="white"/>
</clipPath>
</defs>
</svg>
