<svg width="64" height="64" viewBox="0 0 64 64" fill="none" xmlns="http://www.w3.org/2000/svg">
<path d="M63.2503 23.001V19.1081C63.2503 15.9374 61.938 12.9736 59.6185 10.837C59.9233 9.98512 60.0905 9.06837 60.0905 8.11312C60.0905 3.6395 56.4493 0 51.9735 0C48.0915 0 44.8393 2.741 44.0464 6.38888C42.077 5.46088 40.0068 4.764 37.8691 4.31325C37.1889 4.16963 36.5211 4.605 36.3776 5.28525C36.2341 5.9655 36.6694 6.63338 37.3496 6.77675C39.6444 7.26062 41.8538 8.05562 43.9275 9.1405C44.0021 9.7275 44.1384 10.2952 44.3319 10.8365C43.8595 11.2712 43.4294 11.7405 43.0431 12.2388C39.6456 10.3163 35.8084 9.30538 31.8708 9.30538C28.0063 9.30538 24.2324 10.2854 20.8799 12.1434C20.5134 11.6809 20.1093 11.2436 19.6676 10.8369C19.8615 10.295 19.998 9.72638 20.0725 9.13863C22.1451 8.05463 24.3534 7.26038 26.6468 6.77675C27.327 6.63338 27.7623 5.9655 27.6188 5.28525C27.4754 4.605 26.8074 4.16963 26.1273 4.31325C23.9906 4.76375 21.9214 5.46012 19.953 6.3875C19.1593 2.74037 15.906 0 12.0229 0C7.54913 0 3.90951 3.6395 3.90951 8.11312C3.90951 9.06825 4.07663 9.98475 4.38126 10.8365C2.06201 12.9711 0.749881 15.9349 0.749881 19.1081V23.001C0.749881 25.0637 2.17788 26.7987 4.09788 27.2729C3.83488 28.838 3.70063 30.4216 3.70063 31.9982C3.70063 34.9339 4.14888 37.8235 5.03313 40.5973C4.32038 41.8045 3.90963 43.2104 3.90963 44.7111C3.90963 45.6655 4.07663 46.5814 4.38063 47.4326C2.06163 49.5701 0.749756 52.5347 0.749756 55.7062V59.5956C0.749756 62.0243 2.72563 64 5.15426 64H18.8951C21.3238 64 23.2995 62.0243 23.2995 59.5956V58.9324C26.0969 59.8363 29.0146 60.2948 31.9981 60.2948C34.9838 60.2948 37.9026 59.8361 40.7004 58.9323V59.5956C40.7004 62.0243 42.6763 64 45.1048 64H58.8456C61.2743 64 63.25 62.0243 63.25 59.5956V55.7062C63.25 52.5373 61.9379 49.5728 59.6189 47.4331C59.9233 46.5817 60.0903 45.6657 60.0903 44.7111C60.0903 43.2106 59.6794 41.805 58.9666 40.5979C59.851 37.8239 60.2993 34.934 60.2993 31.9982C60.2993 30.418 60.1645 28.8345 59.9005 27.2733C61.8214 26.7996 63.2503 25.0644 63.2503 23.001ZM51.9735 2.51775C55.0609 2.51775 57.5728 5.02787 57.5728 8.11312C57.5728 11.1984 55.0609 13.7084 51.9735 13.7084C48.8881 13.7084 46.3779 11.1984 46.3779 8.11312C46.3779 5.02775 48.8881 2.51775 51.9735 2.51775ZM31.8708 11.8231C35.3454 11.8231 38.73 12.7104 41.7325 14.3935C41.0594 15.849 40.7005 17.4497 40.7005 19.108V23.0009C40.7005 25.4275 42.6764 27.4016 45.1049 27.4016H51.52C51.8703 28.9041 52.0501 30.4457 52.0501 31.9981C52.0501 33.5513 51.8695 35.0974 51.518 36.608C47.2555 36.8453 43.8601 40.3885 43.8601 44.711C43.8601 45.6654 44.0271 46.5812 44.3311 47.4326C43.8814 47.8471 43.4705 48.2934 43.0988 48.7655C39.7705 50.9976 35.8928 52.1766 31.8706 52.1766C28.0553 52.1766 24.3533 51.1079 21.1455 49.0886C20.7125 48.4959 20.219 47.9411 19.6683 47.433C19.9725 46.5816 20.1396 45.6656 20.1396 44.711C20.1396 40.3021 16.6053 36.7056 12.2214 36.5995C11.8711 35.0971 11.6911 33.5541 11.6911 31.9981C11.6911 30.4459 11.871 28.9042 12.2213 27.4016H18.895C21.3236 27.4016 23.2994 25.4275 23.2994 23.0009V19.108C23.2994 17.4079 22.9211 15.7678 22.2136 14.2823C25.1646 12.6718 28.4781 11.8231 31.8708 11.8231ZM57.3663 27.4018C57.6406 28.9186 57.7818 30.4601 57.7818 31.9982C57.7818 34.1511 57.5174 36.2764 56.9945 38.3409C56.1334 37.6607 55.1328 37.1502 54.0419 36.8626C54.3898 35.2658 54.5679 33.6354 54.5679 31.9982C54.5679 30.4496 54.4096 28.9099 54.099 27.4018H57.3663ZM46.3779 44.7111C46.3779 41.624 48.8881 39.1123 51.9735 39.1123C55.0609 39.1123 57.5728 41.6239 57.5728 44.7111C57.5728 47.7964 55.0609 50.3065 51.9735 50.3065C48.8881 50.3066 46.3779 47.7965 46.3779 44.7111ZM6.63176 27.4018H9.64226C9.33163 28.91 9.17338 30.4497 9.17338 31.9982C9.17338 33.664 9.35688 35.3174 9.71463 36.9311C8.71813 37.2275 7.80188 37.7108 7.00526 38.34C6.48251 36.2759 6.21826 34.1509 6.21826 31.9982C6.21826 30.4645 6.35863 28.9229 6.63176 27.4018ZM6.42726 44.7111C6.42726 41.624 8.93751 39.1123 12.0229 39.1123C15.1103 39.1123 17.622 41.6239 17.622 44.7111C17.622 47.7964 15.1103 50.3065 12.0229 50.3065C8.93738 50.3066 6.42726 47.7965 6.42726 44.7111ZM12.0229 2.51775C15.1103 2.51775 17.622 5.02787 17.622 8.11312C17.622 8.17688 17.6193 8.24013 17.6171 8.30338C17.6161 8.32812 17.6148 8.35288 17.6153 8.37775C17.4765 11.3406 15.0214 13.7084 12.0229 13.7084C8.93751 13.7084 6.42726 11.1984 6.42726 8.11312C6.42726 5.02775 8.93738 2.51775 12.0229 2.51775ZM3.26751 23.001V19.1081C3.26751 16.8553 4.12213 14.7376 5.64838 13.1229C7.13526 15.0105 9.43913 16.226 12.0229 16.226C14.6078 16.226 16.9125 15.0105 18.4 13.123C18.77 13.5148 19.101 13.9356 19.3895 14.3811C19.407 14.4158 19.4258 14.4501 19.4468 14.4838C19.4689 14.5191 19.4928 14.5529 19.5178 14.5854C20.3376 15.9319 20.7819 17.4854 20.7819 19.1081V23.001C20.7819 24.0394 19.9355 24.8841 18.8951 24.8841H11.2153C11.2134 24.8841 11.2114 24.8841 11.2095 24.8841H5.61676C5.61388 24.8841 5.61101 24.8841 5.60813 24.8841H5.15413C4.11388 24.8841 3.26751 24.0394 3.26751 23.001ZM18.8951 61.4823H5.15426C4.11388 61.4823 3.26751 60.6359 3.26751 59.5956V55.7062C3.26751 53.4549 4.12188 51.3369 5.64751 49.72C7.13438 51.6082 9.43851 52.8242 12.0229 52.8242C14.6083 52.8242 16.9134 51.6084 18.4009 49.7202C18.6858 50.0224 18.9471 50.3418 19.184 50.6763C19.2119 50.7218 19.2423 50.7659 19.2761 50.8079C20.25 52.2384 20.7818 53.9315 20.7818 55.7062V57.1702V57.173V59.5956C20.7818 60.6359 19.9354 61.4823 18.8951 61.4823ZM31.9981 57.777C29.0023 57.777 26.0805 57.2701 23.2995 56.2723V55.7062C23.2995 54.7346 23.1758 53.7822 22.9379 52.8669C25.7425 54.0689 28.7739 54.6945 31.8708 54.6945C35.0819 54.6945 38.2111 54.0255 41.0961 52.7396C40.8364 53.6936 40.7005 54.6891 40.7005 55.7062V56.2723C37.9191 57.2701 34.9963 57.777 31.9981 57.777ZM60.7325 55.7062V59.5956C60.7325 60.6359 59.8861 61.4823 58.8458 61.4823H45.1049C44.0645 61.4823 43.2181 60.6359 43.2181 59.5956V57.173C43.2181 57.1721 43.2181 57.1711 43.2181 57.1702V55.7062C43.2181 53.7904 43.837 51.9712 44.9614 50.4751C44.9691 50.4655 44.9786 50.4574 44.9861 50.4474C45.1771 50.1949 45.3824 49.9531 45.5998 49.722C47.0866 51.6091 49.3901 52.8242 51.9735 52.8242C54.5589 52.8242 56.864 51.6084 58.3516 49.7202C59.8779 51.3389 60.7325 53.4567 60.7325 55.7062ZM60.7325 23.001C60.7325 24.0394 59.8861 24.8841 58.8458 24.8841H58.3831C58.3818 24.8841 58.3804 24.8841 58.379 24.8841H45.1049C44.0645 24.8841 43.2181 24.0394 43.2181 23.001V19.1081C43.2181 17.5072 43.6496 15.9746 44.4469 14.6421C44.455 14.6302 44.4645 14.6198 44.4723 14.6075C44.4921 14.5765 44.5096 14.5446 44.5264 14.5125C44.834 14.0182 45.1926 13.5528 45.5989 13.1229C47.0858 15.0105 49.3895 16.226 51.9734 16.226C54.5583 16.226 56.8631 15.0105 58.3506 13.1231C59.8774 14.7395 60.7324 16.8571 60.7324 19.1081V23.001H60.7325Z" fill="#00E889"/>
<path d="M31.9982 6.21941C32.6934 6.21941 33.257 5.65578 33.257 4.96053C33.257 4.26528 32.6934 3.70166 31.9982 3.70166H31.9947C31.2994 3.70166 30.7375 4.26528 30.7375 4.96053C30.7375 5.65578 31.303 6.21941 31.9982 6.21941Z" fill="#00E889"/>
</svg>
