<svg width="40" height="40" viewBox="0 0 40 40" fill="none" xmlns="http://www.w3.org/2000/svg">
<path d="M19.9294 5.08281C20.3639 5.08281 20.7162 4.73055 20.7162 4.29602V0.786797C20.7162 0.352266 20.3639 0 19.9294 0C19.4948 0 19.1426 0.352266 19.1426 0.786797V4.29602C19.1427 4.73055 19.4949 5.08281 19.9294 5.08281Z" fill="#00E889"/>
<path d="M39.163 27.0301L37.773 25.644C37.2786 25.1502 36.6196 24.8782 35.9174 24.8782C35.4684 24.8782 35.0374 24.9899 34.6555 25.1992L32.0363 22.5831L32.1638 22.4557C33.2264 21.391 33.226 19.6609 32.1637 18.5998C31.7841 18.2195 31.3105 17.9659 30.7941 17.8592C30.8652 17.6138 30.9027 17.3568 30.9027 17.0937C30.9027 16.3629 30.6187 15.6776 30.1048 15.1658C29.7252 14.7854 29.2516 14.5319 28.7352 14.4251C28.8063 14.1797 28.8438 13.9228 28.8438 13.6597C28.8438 12.9287 28.5598 12.2435 28.0451 11.7309C27.6563 11.3426 27.1784 11.0969 26.6766 10.9922C26.9451 10.0667 26.7157 9.02537 25.9876 8.296C25.3815 7.69248 24.5591 7.4331 23.7665 7.51717L18.5763 6.53475C17.7847 6.38459 16.7962 6.28529 16.1722 6.85443C16.1328 6.89037 16.0927 6.9317 16.0531 6.97771C15.0856 6.62506 13.9572 6.83506 13.1824 7.60896C12.6684 8.12232 12.3853 8.80732 12.3853 9.53779C12.3853 9.80092 12.4226 10.0579 12.4936 10.3033C11.9778 10.41 11.5048 10.6633 11.1264 11.0423C10.6114 11.5552 10.3274 12.2394 10.3269 12.969C10.3266 13.2328 10.3641 13.4906 10.4355 13.7367C9.91945 13.8431 9.44609 14.0959 9.06656 14.475C8.55156 14.9894 8.26797 15.6748 8.26797 16.4049C8.26797 16.9641 8.43492 17.4969 8.7443 17.9469C8.35367 18.0793 7.99586 18.2997 7.69625 18.599C6.63297 19.6609 6.63258 21.3911 7.69695 22.4573L7.82406 22.5839L5.20453 25.1987C4.23102 24.7403 3.03156 24.912 2.2282 25.7144L0.837422 27.1012C0.342734 27.5953 0.0703906 28.2544 0.0703125 28.9569C0.0703125 29.6596 0.342734 30.3187 0.837422 30.8129L2.57312 32.5465C2.88055 32.8536 3.37875 32.8533 3.68578 32.5458C3.99289 32.2384 3.99258 31.7402 3.68516 31.4332L1.94945 29.6996C1.75242 29.5028 1.64391 29.239 1.64391 28.957C1.64391 28.6751 1.75242 28.4114 1.94898 28.2151L3.33984 26.8281C3.68734 26.481 4.21922 26.4293 4.62312 26.6708C4.65156 26.7135 4.68445 26.7541 4.72211 26.7919C4.78953 26.8594 4.86648 26.9112 4.9482 26.9491L12.9242 34.9134C12.9621 34.996 13.0141 35.0737 13.082 35.1417C13.1481 35.2079 13.2235 35.259 13.3035 35.2967C13.4722 35.4874 13.5654 35.731 13.5654 35.9908C13.5654 36.2729 13.4569 36.5365 13.2598 36.7333L11.8704 38.1212C11.4598 38.5299 10.792 38.5298 10.3827 38.1224L8.64703 36.3865C8.33977 36.0793 7.84164 36.0793 7.53438 36.3865C7.22711 36.6938 7.22711 37.1919 7.53438 37.4992L9.27133 39.2363C9.78258 39.7454 10.454 39.9999 11.1257 39.9999C11.7976 39.9999 12.4698 39.7451 12.9816 39.2354L14.372 37.8468C14.8666 37.3526 15.1391 36.6936 15.1391 35.9908C15.1391 35.4894 14.9996 35.0104 14.7403 34.5975L17.6884 31.6529C17.6916 31.6497 17.6947 31.6465 17.6979 31.6433C18.0355 31.2944 18.9755 31.3597 19.8847 31.4228C20.5306 31.4677 21.2508 31.5176 21.9544 31.4365L25.1828 34.6612C24.9737 35.0425 24.862 35.4729 24.862 35.9212C24.862 36.6232 25.1345 37.2819 25.6291 37.776L27.0195 39.1647C27.5139 39.6585 28.1729 39.9305 28.8751 39.9305C29.5772 39.9305 30.2362 39.6586 30.7306 39.1647L39.1635 30.742C39.6582 30.2479 39.9306 29.5889 39.9306 28.8862C39.9305 28.1837 39.6581 27.5246 39.163 27.0301ZM18.2833 8.08084L21.6963 8.72686L19.6534 10.769C19.3374 10.6171 18.9043 10.3338 18.4291 9.87928C17.7787 9.25709 17.3135 8.53873 17.2712 8.09068C17.2711 8.09045 17.2711 8.09021 17.2711 8.08998C17.2711 8.0899 17.271 8.08982 17.271 8.08975C17.268 8.05756 17.2672 8.03185 17.2676 8.01225C17.3705 7.98725 17.6438 7.95951 18.2833 8.08084ZM14.2944 8.72232C14.693 8.32412 15.3122 8.27818 15.7626 8.58318C16.0178 9.65334 16.9307 10.6233 17.3414 11.0162C17.6458 11.3075 18.6224 12.1807 19.6082 12.4207C19.7416 12.6119 19.8141 12.8397 19.8141 13.0802C19.8141 13.39 19.695 13.6796 19.4779 13.8965C19.2614 14.1133 18.9713 14.2327 18.661 14.2327C18.3506 14.2327 18.0605 14.1133 17.843 13.8954L17.843 13.8954L17.8426 13.895L14.2943 10.3531C14.078 10.1371 13.9588 9.84748 13.9588 9.53779C13.9589 9.22803 14.078 8.93842 14.2944 8.72232ZM12.2384 12.1557C12.4549 11.9389 12.7447 11.8194 13.0545 11.8194C13.3648 11.8194 13.6555 11.9391 13.8734 12.1568L16.7305 15.0083C17.1805 15.4589 17.1805 16.1922 16.7321 16.6412C16.5145 16.858 16.2234 16.9774 15.9125 16.9774C15.6016 16.9774 15.3105 16.858 15.0938 16.6422L15.0938 16.6421L12.9262 14.475C12.9228 14.4716 12.9191 14.4685 12.9157 14.4651L12.2376 13.7872C12.02 13.5699 11.9002 13.2797 11.9005 12.9702C11.9008 12.6617 12.0202 12.373 12.2384 12.1557ZM10.1786 15.5883C10.3952 15.372 10.6856 15.2529 10.9964 15.2529C11.3046 15.2529 11.5925 15.3703 11.8082 15.5829L13.9824 17.7561C14.1992 17.972 14.3187 18.2613 14.3187 18.5707C14.3187 18.88 14.1992 19.1693 13.9816 19.3861C13.765 19.6023 13.4749 19.7215 13.1647 19.7215C12.854 19.7215 12.563 19.602 12.3461 19.3861L11.5579 18.5988C11.5577 18.5986 11.5575 18.5984 11.5573 18.5983L10.1787 17.2212C9.96133 17.0041 9.84164 16.7141 9.84164 16.4047C9.84164 16.0954 9.96133 15.8054 10.1786 15.5883ZM8.80828 19.7122C9.02586 19.4949 9.31664 19.3752 9.62703 19.3752C9.93734 19.3752 10.228 19.4948 10.4455 19.712L11.2348 20.5004C11.4517 20.7163 11.5711 21.0056 11.5711 21.315C11.5711 21.6244 11.4516 21.9136 11.2332 22.1312C11.0167 22.348 10.7266 22.4675 10.4163 22.4675C10.1059 22.4675 9.81586 22.3481 9.59781 22.1297L9.49898 22.0312C9.49766 22.0299 9.49664 22.0285 9.49539 22.0272C9.49391 22.0258 9.49234 22.0246 9.49086 22.0232L8.80906 21.344C8.35914 20.8932 8.35875 20.1612 8.80828 19.7122ZM24.8422 28.6543C24.5351 28.3468 24.0369 28.3465 23.7295 28.6536L23.0295 29.3527C22.3644 30.0179 21.1591 29.9341 19.9936 29.8533C18.7279 29.7653 17.4191 29.6745 16.5721 30.544L13.6741 33.4386L6.42695 26.2021L8.99164 23.642C9.41555 23.9019 9.90469 24.0412 10.4165 24.0412C11.1477 24.0412 11.8333 23.7577 12.3454 23.2447C12.8609 22.7312 13.1449 22.046 13.1449 21.3151C13.1449 21.3083 13.1445 21.3015 13.1445 21.2947C13.1512 21.2948 13.158 21.2952 13.1648 21.2952C13.895 21.2952 14.5801 21.0126 15.0929 20.5004C15.6084 19.987 15.8924 19.3017 15.8924 18.5708C15.8924 18.564 15.892 18.5573 15.892 18.5505C15.8988 18.5505 15.9057 18.551 15.9127 18.551C16.6426 18.551 17.328 18.2687 17.8443 17.7546C18.3802 17.2178 18.6453 16.5111 18.6402 15.8058C18.6473 15.8059 18.6543 15.8063 18.6613 15.8063C19.3925 15.8062 20.078 15.5229 20.5909 15.009C21.1049 14.4957 21.388 13.8107 21.388 13.0802C21.388 12.5694 21.2491 12.081 20.9902 11.6579L23.238 9.411C23.4055 9.2442 23.6121 9.13951 23.8286 9.09631C23.852 9.09381 23.8752 9.09006 23.898 9.08553C24.2454 9.03764 24.6102 9.14482 24.8758 9.40936C25.3257 9.86006 25.3257 10.5933 24.8774 11.0424L24.1928 11.7242C24.1905 11.7265 24.1881 11.7285 24.1859 11.7308L23.3973 12.5179C23.0898 12.825 23.0895 13.3232 23.3966 13.6306C23.7038 13.9381 24.202 13.9383 24.5093 13.6313L25.1966 12.9449C25.1968 12.9447 25.197 12.9446 25.1971 12.9444L25.301 12.8409C25.7522 12.3939 26.4831 12.3948 26.9338 12.8449C27.1507 13.0608 27.2702 13.3501 27.2702 13.6595C27.2702 13.9688 27.1507 14.2581 26.9321 14.4758L26.2436 15.1657C26.2435 15.1658 26.2434 15.1658 26.2434 15.166L25.4549 15.9512C25.147 16.2579 25.146 16.7561 25.4527 17.0639C25.7593 17.3718 26.2574 17.3727 26.5653 17.0662L27.3573 16.2773C27.5738 16.0604 27.8639 15.9411 28.1742 15.9411C28.4846 15.9411 28.7748 16.0604 28.9928 16.2789C29.2097 16.4949 29.3291 16.7842 29.3291 17.0936C29.3291 17.4029 29.2097 17.6922 28.9916 17.9094L27.6189 19.2826C27.3117 19.5899 27.3118 20.088 27.6191 20.3952C27.7727 20.5488 27.974 20.6255 28.1753 20.6255C28.3767 20.6255 28.5781 20.5487 28.7317 20.395L29.4045 19.722C29.4083 19.7183 29.4124 19.7151 29.4162 19.7113C29.6327 19.4944 29.9228 19.3751 30.2331 19.3751C30.5435 19.3751 30.8336 19.4944 31.0509 19.7121C31.5003 20.1611 31.4999 20.8931 31.0509 21.3429L30.3669 22.0262C30.3666 22.0264 30.3663 22.0266 30.3661 22.0269C30.3659 22.0271 30.3656 22.0274 30.3654 22.0276L29.2798 23.1119C28.9723 23.419 28.972 23.9172 29.2791 24.2247C29.4327 24.3785 29.6343 24.4554 29.8358 24.4554C30.037 24.4554 30.2382 24.3787 30.3918 24.2254L30.9228 23.695L33.4679 26.2371L26.2214 33.4747L23.625 30.8815C23.806 30.7651 23.9792 30.6282 24.1418 30.4656L24.8414 29.7669C25.149 29.4599 25.1493 28.9617 24.8422 28.6543ZM38.0514 29.6287L29.6185 38.0513C29.4212 38.2483 29.1572 38.3569 28.875 38.3569C28.5928 38.3569 28.3287 38.2483 28.1314 38.0512L26.741 36.6626C26.544 36.4658 26.4355 36.2026 26.4355 35.9212C26.4355 35.64 26.544 35.3767 26.741 35.1799L35.1739 26.7572C35.3713 26.5601 35.6352 26.4516 35.9175 26.4516C36.1997 26.4516 36.4637 26.5601 36.6616 26.7577L38.0515 28.1437C38.2485 28.3405 38.357 28.6041 38.357 28.8862C38.357 29.1683 38.2484 29.4319 38.0514 29.6287Z" fill="#00E889"/>
<path d="M9.48279 4.41969C9.63639 4.57297 9.83748 4.64953 10.0386 4.64953C10.2401 4.64953 10.4418 4.5725 10.5954 4.41852C10.9024 4.11094 10.9019 3.61281 10.5944 3.30586L7.72732 0.444532C7.41982 0.137578 6.92162 0.137969 6.61467 0.445625C6.30772 0.753203 6.30818 1.25133 6.61576 1.55828L9.48279 4.41969Z" fill="#00E889"/>
<path d="M29.8219 4.6495C30.0231 4.6495 30.2244 4.57278 30.3779 4.41942L33.2428 1.55802C33.5502 1.25099 33.5505 0.752783 33.2434 0.445361C32.9364 0.13794 32.4383 0.137627 32.1308 0.444736L29.2659 3.30614C28.9585 3.61317 28.9582 4.11138 29.2653 4.4188C29.419 4.57263 29.6204 4.6495 29.8219 4.6495Z" fill="#00E889"/>
<path d="M4.90735 33.8441C4.60274 34.1539 4.60696 34.6521 4.91688 34.9568L4.91915 34.9589C5.07204 35.1093 5.27056 35.1841 5.46899 35.1841C5.67267 35.1841 5.87634 35.1053 6.03063 34.9483C6.33524 34.6385 6.32985 34.1392 6.02001 33.8346C5.71024 33.53 5.21212 33.5343 4.90735 33.8441Z" fill="#00E889"/>
<path d="M26.7654 27.5209C26.885 27.5209 27.0065 27.4937 27.1204 27.4362C27.5084 27.2405 27.6643 26.7674 27.4686 26.3794C27.2729 25.9915 26.7997 25.8355 26.4118 26.0312L26.4075 26.0334C26.0195 26.2291 25.8658 26.7012 26.0615 27.0891C26.1996 27.3632 26.4774 27.5209 26.7654 27.5209Z" fill="#00E889"/>
</svg>
