<svg width="40" height="40" viewBox="0 0 40 40" fill="none" xmlns="http://www.w3.org/2000/svg">
<g clip-path="url(#clip0_563_16583)">
<path d="M18.4572 27.1302C18.7626 26.8247 18.7626 26.3303 18.4572 26.0248C18.1514 25.7202 17.656 25.7202 17.35 26.0248C17.0448 26.3303 17.0448 26.8247 17.35 27.1302C17.656 27.4347 18.1514 27.4347 18.4572 27.1302Z" fill="#00E889"/>
<path d="M14.752 8.59131C14.752 13.3286 18.6136 17.1829 23.3601 17.1829C28.1066 17.1829 31.9682 13.3286 31.9682 8.59131C31.9682 3.85407 28.1066 0 23.3601 0C18.6136 0 14.752 3.85407 14.752 8.59131ZM30.4033 8.59131C30.4033 12.4674 27.2437 15.6207 23.3601 15.6207C19.4765 15.6207 16.3169 12.4674 16.3169 8.59131C16.3169 4.71558 19.4765 1.5622 23.3601 1.5622C27.2437 1.5622 30.4033 4.71558 30.4033 8.59131Z" fill="#00E889"/>
<path d="M9.05287 39.7689C9.3562 40.0741 9.85002 40.0775 10.1573 39.7754L13.9514 36.0449C14.5959 35.4016 14.7919 34.4491 14.5085 33.6212L15.3246 32.8357C15.764 32.4121 16.3425 32.1786 16.954 32.1786H27.3574C29.203 32.1786 30.9474 31.4712 32.2699 30.1867C32.3243 30.1339 31.8568 30.6836 39.3672 21.7248C40.4811 20.4095 40.3145 18.4344 38.9954 17.3214C37.6845 16.2188 35.7209 16.3772 34.6039 17.6699L29.9861 22.4069C29.403 21.6906 28.5138 21.2442 27.5531 21.2442H18.8266C17.5849 20.7257 16.2673 20.4632 14.9078 20.4632C11.1395 20.4632 7.84904 22.2003 6.0832 25.4571C5.33926 25.3164 4.55464 25.541 3.99019 26.1044L0.267399 29.8309C-0.0365394 30.1352 -0.0371509 30.6274 0.266176 30.9326L9.05287 39.7689ZM14.9075 22.0251C16.1061 22.0251 17.265 22.2659 18.3527 22.7407C18.4517 22.7841 18.5584 22.8064 18.6664 22.8064H27.5531C28.4016 22.8064 29.1183 23.497 29.1183 24.3682C29.1183 25.2298 28.4163 25.9304 27.5531 25.9304H21.1682C20.7362 25.9304 20.3857 26.2802 20.3857 26.7114C20.3857 27.1429 20.7362 27.4923 21.1682 27.4923H27.5531C29.2792 27.4923 30.6833 26.091 30.6833 24.3682C30.6833 24.2309 30.6735 24.0948 30.6557 23.9599C35.1228 19.3771 35.7527 18.7332 35.7796 18.7011C36.3373 18.0441 37.3274 17.9608 37.986 18.515C38.6453 19.0713 38.7288 20.0589 38.1695 20.7196L31.1505 29.0942C30.1255 30.0763 28.7798 30.6167 27.3574 30.6167H16.954C15.9346 30.6167 14.9696 31.0058 14.2376 31.7117L13.5725 32.3523L7.44175 26.2338C8.87461 23.551 11.5633 22.0251 14.9075 22.0251ZM5.0977 27.2082C5.35577 26.9506 5.75205 26.9043 6.06669 27.0984C6.20215 27.1807 5.81321 26.8274 12.8448 33.8354C13.1576 34.1476 13.1408 34.645 12.849 34.9362L9.61458 38.1164L1.9253 30.3836L5.0977 27.2082Z" fill="#00E889"/>
<path d="M22.42 3.90527V4.8205C21.5091 5.14276 20.8547 6.01099 20.8547 7.02936C20.8547 8.32117 21.9078 9.3725 23.2024 9.3725C23.6339 9.3725 23.9849 9.72284 23.9849 10.1534C23.9849 10.584 23.6339 10.9344 23.2024 10.9344C22.8682 10.9344 22.5071 10.7247 22.1864 10.3436C21.9081 10.0134 21.4146 9.97095 21.0837 10.2484C20.7529 10.5261 20.7101 11.0186 20.9883 11.3488C21.4066 11.8453 21.8986 12.1914 22.42 12.366V13.2775C22.42 13.7091 22.7704 14.0585 23.2024 14.0585C23.6345 14.0585 23.9849 13.7091 23.9849 13.2775V12.3623C24.8958 12.0397 25.5502 11.1715 25.5502 10.1534C25.5502 8.86133 24.4971 7.81031 23.2024 7.81031C22.771 7.81031 22.42 7.45996 22.42 7.02936C22.42 6.59876 22.771 6.24811 23.2024 6.24811C23.4798 6.24811 23.7724 6.38941 24.0488 6.65643C24.3595 6.95642 24.8548 6.94818 25.1554 6.63843C25.456 6.32837 25.4477 5.83399 25.1374 5.534C24.7402 5.15039 24.3427 4.93341 23.9849 4.815V3.90527C23.9849 3.47376 23.6345 3.12402 23.2024 3.12402C22.7704 3.12402 22.42 3.47376 22.42 3.90527Z" fill="#00E889"/>
</g>
<defs>
<clipPath id="clip0_563_16583">
<rect width="40" height="40" fill="white"/>
</clipPath>
</defs>
</svg>
