<svg width="40" height="40" viewBox="0 0 40 40" fill="none" xmlns="http://www.w3.org/2000/svg">
<path d="M39.7702 0.228828C39.6236 0.0823437 39.4248 0 39.2176 0L19.9993 0.00101562C19.5679 0.00101562 19.2181 0.350859 19.2181 0.782266V3.01641L11.8127 5.0007C11.3959 5.11242 11.1486 5.54078 11.2603 5.9575L15.0984 20.2811L11.7781 23.6013C11.3555 22.9843 10.646 22.5785 9.84344 22.5785H2.34367C1.05133 22.5785 0 23.6299 0 24.9222V37.6562C0 38.9486 1.05133 40 2.34367 40H9.84352C10.9414 40 11.865 39.2409 12.1181 38.2203L13.047 39.0304C13.7641 39.6557 14.6829 40.0001 15.6344 40.0001H39.2177C39.6491 40.0001 39.999 39.6502 39.999 39.2188V0.78125C39.9988 0.574063 39.9166 0.375313 39.7702 0.228828ZM10.6246 37.6563C10.6246 38.087 10.2741 38.4376 9.84336 38.4376H2.34359C1.91281 38.4376 1.56234 38.0871 1.56234 37.6563V24.9223C1.56234 24.4915 1.91281 24.141 2.34359 24.141H5.31227V33.1406C5.31227 33.572 5.66211 33.9219 6.09352 33.9219C6.52492 33.9219 6.87477 33.572 6.87477 33.1406V24.141H9.84344C10.2742 24.141 10.6247 24.4915 10.6247 24.9223V37.6563H10.6246ZM12.9717 6.30773L19.2181 4.63398V7.52891L18.6945 7.66922C18.4943 7.72289 18.3237 7.85375 18.2202 8.0332C18.1166 8.21266 18.0884 8.42586 18.1421 8.62602C18.4423 9.74641 17.7751 10.9021 16.6547 11.2023C16.4543 11.2561 16.2834 11.3872 16.1799 11.567C16.0764 11.7468 16.0485 11.9604 16.1027 12.1607L19.1479 23.4371H17.5799L16.7719 20.2759C16.7462 20.1752 16.7012 20.0825 16.6409 20.0019L12.9717 6.30773ZM19.2181 11.1116V17.7039L17.7932 12.4277C18.3884 12.1204 18.8755 11.6605 19.2181 11.1116ZM30.4419 38.4375H15.6342C15.0604 38.4375 14.5062 38.2298 14.0737 37.8527L12.1871 36.2073V25.4021L15.5979 21.9913L16.2165 24.4116C16.3049 24.7575 16.6164 24.9994 16.9734 24.9994L32.333 25.0003C32.9362 25.0003 33.4268 25.4909 33.4268 26.0941C33.4268 26.6972 32.9362 27.1878 32.333 27.1878H24.4627C24.0313 27.1878 23.6815 27.5377 23.6815 27.9691C23.6815 28.4005 24.0313 28.7503 24.4627 28.7503H34.7784C35.3815 28.7503 35.8721 29.2409 35.8721 29.8441C35.8721 30.4472 35.3815 30.9378 34.7784 30.9378H24.4627C24.0313 30.9378 23.6815 31.2877 23.6815 31.7191C23.6815 32.1505 24.0313 32.5003 24.4627 32.5003H33.1067C33.7098 32.5003 34.2005 32.9909 34.2005 33.5941C34.2005 34.1972 33.7098 34.6878 33.1067 34.6878H24.4627C24.0313 34.6878 23.6815 35.0377 23.6815 35.4691C23.6815 35.9005 24.0313 36.2503 24.4627 36.2503H30.4419C31.045 36.2503 31.5356 36.7409 31.5356 37.3441C31.5355 37.9469 31.0449 38.4375 30.4419 38.4375ZM38.4365 38.4375H38.4364H32.8615C33.013 38.1037 33.098 37.7336 33.098 37.3438C33.098 36.9539 33.013 36.5838 32.8615 36.25H33.1067C34.5713 36.25 35.7629 35.0584 35.7629 33.5938C35.7629 33.1666 35.6609 32.763 35.4809 32.405C36.6056 32.0961 37.4345 31.0652 37.4345 29.8439C37.4345 29.2514 37.2393 28.7037 36.9102 28.2615V18.3599C36.9102 17.9285 36.5603 17.5787 36.1289 17.5787C35.6975 17.5787 35.3477 17.9285 35.3477 18.3599V27.2499C35.1641 27.2097 34.9737 27.1878 34.7782 27.1878H34.7526C34.9041 26.854 34.9891 26.4839 34.9891 26.0941C34.9891 24.6294 33.7976 23.4379 32.333 23.4379H31.0771C32.4106 22.866 33.3472 21.5405 33.3472 20C33.3472 17.9384 31.67 16.2611 29.6084 16.2611C27.5468 16.2611 25.8695 17.9384 25.8695 20C25.8695 21.5405 26.8062 22.866 28.1396 23.4379H23.8691V8.58305C25.2647 8.27891 26.3659 7.17773 26.67 5.78203H32.5466C32.8507 7.17773 33.952 8.27891 35.3476 8.58305V11.012C35.3476 11.4434 35.6974 11.7932 36.1288 11.7932C36.5602 11.7932 36.9101 11.4434 36.9101 11.012V7.88555C36.9101 7.45414 36.5602 7.1043 36.1288 7.1043C34.9689 7.1043 34.0254 6.16062 34.0254 5.00078C34.0254 4.56938 33.6755 4.21953 33.2441 4.21953H25.9726C25.5412 4.21953 25.1913 4.56938 25.1913 5.00078C25.1913 6.1607 24.2477 7.1043 23.0879 7.1043C22.6565 7.1043 22.3066 7.45414 22.3066 7.88555V23.4378H20.7807V1.56336L38.4365 1.5625V38.4375ZM29.6085 22.1764C28.4084 22.1764 27.4322 21.2001 27.4322 20.0001C27.4322 18.8001 28.4085 17.8237 29.6085 17.8237C30.8085 17.8237 31.7848 18.8 31.7848 20C31.7848 21.2 30.8086 22.1764 29.6085 22.1764Z" fill="#00E889"/>
</svg>
