<svg width="132" height="40" viewBox="0 0 132 40" fill="none" xmlns="http://www.w3.org/2000/svg">
<g clip-path="url(#clip0_1540_1322)">
<path d="M19.8146 15.7427C15.3687 15.1012 11.5677 14.6176 11.5677 11.7256C11.5677 9.58491 13.7116 8.08253 17.2967 8.08253C21.1526 8.08253 23.6705 10.0105 23.6705 13.3828H33.9002C33.897 5.46143 27.0976 0 16.9227 0C6.79939 0 0.267591 4.92625 0.267591 12.5316C0.267591 22.3841 10.2297 23.1869 16.8163 24.0993C20.7238 24.6345 23.8865 25.2761 23.8865 28.0616C23.8865 30.4183 21.5298 31.7563 17.8899 31.7563C13.2828 31.7563 10.6617 29.6671 10.6069 26.456H0C0 34.3806 6.96059 39.8968 17.4579 39.8968C20.4981 39.8968 23.2385 39.5003 25.6081 38.7555L31.8465 19.7082C28.6774 17.0904 23.8156 16.3359 19.8146 15.7427Z" fill="white"/>
<path d="M61.4847 11.5386C53.457 11.5386 48.2954 15.3945 48.2954 21.3911H57.7288C57.7288 19.0988 59.2408 17.7415 61.3783 17.7415C63.619 17.7415 64.9215 19.0956 64.9215 21.0783V22.2777L60.2306 22.8515C51.4226 24.0509 47.1992 26.8138 47.1992 32.0238C47.1992 36.9242 50.8488 39.7388 56.1651 39.7388C59.6567 39.7388 62.8904 38.4363 64.4024 35.9345H64.9247V39.1133H70.5796L74.7256 26.456V21.4427C74.7256 15.3977 69.4608 11.5386 61.4847 11.5386ZM64.9247 29.0545C64.9247 31.8175 62.8904 33.8518 59.9727 33.8518C57.8352 33.8518 56.5842 32.7556 56.5842 31.0888C56.5842 29.5252 57.732 28.429 60.5981 28.0647L64.9247 27.4393V29.0545Z" fill="white"/>
<path d="M42.0214 0.229004H51.7675L39.036 39.1135H29.2866L42.0214 0.229004Z" fill="#00E889"/>
<path d="M92.1739 22.2776C88.5759 21.8617 85.3971 21.7554 85.3971 19.7242C85.3971 18.2638 86.9607 17.274 89.1498 17.274C91.6516 17.274 93.4248 18.5249 93.4764 20.4013H102.13C102.13 14.8754 96.6036 11.3838 89.1498 11.3838C81.4864 11.3838 76.4312 14.9269 76.4312 20.6108C76.4312 28.0647 83.5723 28.4806 88.4212 28.9513C91.2357 29.2124 93.528 29.5252 93.528 31.4531C93.528 33.0683 91.9128 34.0581 89.6173 34.0581C86.5416 34.0581 84.5621 32.546 84.5621 30.2538H76.2732C76.2732 36.302 81.3284 39.9999 89.4077 39.9999C93.025 39.9999 96.0459 39.339 98.3349 38.1332L102.162 26.4559C100.195 23.4383 95.8363 22.6677 92.1739 22.2776Z" fill="white"/>
<path d="M131.248 22.3294C131.248 16.0749 127.338 11.5387 121.763 11.5387C118.585 11.5387 116.289 12.9992 114.203 16.0749H113.681V0.229004H103.935V39.1135H113.681V24.309C113.681 21.5976 115.403 19.7212 117.695 19.7212C119.987 19.7212 121.448 21.546 121.448 24.0994V39.1103H127.102L131.248 26.4561V22.3294Z" fill="white"/>
</g>
<defs>
<clipPath id="clip0_1540_1322">
<rect width="131.248" height="40" fill="white"/>
</clipPath>
</defs>
</svg>
