<svg width="132" height="40" viewBox="0 0 132 40" fill="none" xmlns="http://www.w3.org/2000/svg">
<path d="M19.8146 15.7427C15.3687 15.1012 11.5677 14.6176 11.5677 11.7256C11.5677 9.58491 13.7116 8.08253 17.2967 8.08253C21.1526 8.08253 23.6705 10.0105 23.6705 13.3828H33.9002C33.897 5.46143 27.0976 0 16.9227 0C6.79939 0 0.267591 4.92625 0.267591 12.5316C0.267591 22.3841 10.2297 23.1869 16.8163 24.0993C20.7238 24.6345 23.8865 25.2761 23.8865 28.0616C23.8865 30.4183 21.5298 31.7563 17.8899 31.7563C13.2828 31.7563 10.6617 29.6671 10.6069 26.456H0C0 34.3806 6.96059 39.8968 17.4579 39.8968C20.4981 39.8968 23.2385 39.5003 25.6081 38.7555L31.8465 19.7082C28.6774 17.0904 23.8156 16.3359 19.8146 15.7427Z" fill="#0F1C4C"/>
<path d="M61.4847 11.5385C53.457 11.5385 48.2954 15.3944 48.2954 21.391H57.7288C57.7288 19.0988 59.2408 17.7415 61.3783 17.7415C63.619 17.7415 64.9215 19.0955 64.9215 21.0783V22.2776L60.2306 22.8515C51.4226 24.0508 47.1992 26.8138 47.1992 32.0237C47.1992 36.9242 50.8488 39.7387 56.1651 39.7387C59.6567 39.7387 62.8904 38.4362 64.4024 35.9344H64.9247V39.1133H70.5796L74.7256 26.4559V21.4426C74.7256 15.3976 69.4608 11.5385 61.4847 11.5385ZM64.9247 29.0544C64.9247 31.8174 62.8904 33.8517 59.9727 33.8517C57.8352 33.8517 56.5842 32.7556 56.5842 31.0888C56.5842 29.5251 57.732 28.429 60.5981 28.0647L64.9247 27.4392V29.0544Z" fill="#0F1C4C"/>
<path d="M42.0214 0.229065H51.7675L39.036 39.1136H29.2866L42.0214 0.229065Z" fill="#00E889"/>
<path d="M92.1739 22.2777C88.5759 21.8618 85.3971 21.7554 85.3971 19.7243C85.3971 18.2638 86.9607 17.2741 89.1498 17.2741C91.6516 17.2741 93.4248 18.525 93.4764 20.4013H102.13C102.13 14.8754 96.6036 11.3839 89.1498 11.3839C81.4864 11.3839 76.4312 14.927 76.4312 20.6109C76.4312 28.0648 83.5723 28.4806 88.4212 28.9514C91.2357 29.2125 93.528 29.5252 93.528 31.4532C93.528 33.0684 91.9128 34.0581 89.6173 34.0581C86.5416 34.0581 84.5621 32.5461 84.5621 30.2538H76.2732C76.2732 36.302 81.3284 40 89.4077 40C93.025 40 96.0459 39.339 98.3349 38.1333L102.162 26.456C100.195 23.4383 95.8363 22.6678 92.1739 22.2777Z" fill="#0F1C4C"/>
<path d="M131.248 22.3295C131.248 16.075 127.338 11.5388 121.763 11.5388C118.585 11.5388 116.289 12.9993 114.203 16.075H113.681V0.229065H103.935V39.1136H113.681V24.309C113.681 21.5976 115.403 19.7213 117.695 19.7213C119.987 19.7213 121.448 21.5461 121.448 24.0995V39.1103H127.102L131.248 26.4562V22.3295Z" fill="#0F1C4C"/>
</svg>
