<svg width="28" height="28" viewBox="0 0 28 28" fill="none" xmlns="http://www.w3.org/2000/svg">
<path fill-rule="evenodd" clip-rule="evenodd" d="M15.0383 1.69164L24.3717 6.35831C25.1646 6.75232 25.6662 7.5612 25.6667 8.44664V19.565C25.6662 20.4504 25.1646 21.2593 24.3717 21.6533L15.0383 26.32C14.3811 26.6489 13.6073 26.6489 12.95 26.32L3.61667 21.6533C2.8245 21.2542 2.32717 20.4403 2.33334 19.5533V8.44664C2.33381 7.5612 2.83541 6.75232 3.62834 6.35831L12.9617 1.69164C13.6157 1.36662 14.3843 1.36662 15.0383 1.69164Z" stroke="#0F1C4C" stroke-width="2" stroke-linecap="round" stroke-linejoin="round"/>
<path d="M2.70667 7.18665L14 12.8333L25.2933 7.18665" stroke="#0F1C4C" stroke-width="2" stroke-linecap="round" stroke-linejoin="round"/>
<path d="M14 26.5534V12.8334" stroke="#0F1C4C" stroke-width="2" stroke-linecap="round" stroke-linejoin="round"/>
<path d="M8.16666 4.08337L19.8333 9.91671" stroke="#0F1C4C" stroke-width="2" stroke-linecap="round" stroke-linejoin="round"/>
</svg>
