<svg width="28" height="28" viewBox="0 0 28 28" fill="none" xmlns="http://www.w3.org/2000/svg">
<path fill-rule="evenodd" clip-rule="evenodd" d="M14 17.5C15.933 17.5 17.5 15.933 17.5 14C17.5 12.067 15.933 10.5 14 10.5C12.067 10.5 10.5 12.067 10.5 14C10.5 15.933 12.067 17.5 14 17.5Z" stroke="#0F1C4C" stroke-width="2" stroke-linecap="round" stroke-linejoin="round"/>
<path fill-rule="evenodd" clip-rule="evenodd" d="M22.6333 17.5C22.3156 18.22 22.468 19.0608 23.0183 19.6234L23.0883 19.6934C23.5265 20.131 23.7727 20.7249 23.7727 21.3442C23.7727 21.9635 23.5265 22.5574 23.0883 22.995C22.6507 23.4332 22.0568 23.6794 21.4375 23.6794C20.8182 23.6794 20.2243 23.4332 19.7867 22.995L19.7167 22.925C19.1541 22.3747 18.3133 22.2223 17.5933 22.54C16.8881 22.8423 16.4297 23.5344 16.4267 24.3017V24.5C16.4267 25.7887 15.382 26.8334 14.0933 26.8334C12.8047 26.8334 11.76 25.7887 11.76 24.5V24.395C11.7415 23.6048 11.2418 22.9062 10.5 22.6334C9.78005 22.3156 8.93921 22.4681 8.37666 23.0184L8.30666 23.0884C7.869 23.5265 7.27511 23.7727 6.65582 23.7727C6.03654 23.7727 5.44265 23.5265 5.00499 23.0884C4.56684 22.6507 4.32065 22.0568 4.32065 21.4375C4.32065 20.8182 4.56684 20.2243 5.00499 19.7867L5.07499 19.7167C5.62527 19.1541 5.77773 18.3133 5.45999 17.5934C5.15774 16.8881 4.46557 16.4297 3.69832 16.4267H3.49999C2.21133 16.4267 1.16666 15.382 1.16666 14.0934C1.16666 12.8047 2.21133 11.76 3.49999 11.76H3.60499C4.39521 11.7415 5.09381 11.2419 5.36666 10.5C5.68439 9.78008 5.53193 8.93924 4.98166 8.37669L4.91166 8.30669C4.47351 7.86903 4.22732 7.27514 4.22732 6.65585C4.22732 6.03657 4.47351 5.44268 4.91166 5.00502C5.34932 4.56687 5.9432 4.32068 6.56249 4.32068C7.18178 4.32068 7.77566 4.56687 8.21332 5.00502L8.28332 5.07502C8.84587 5.6253 9.68672 5.77776 10.4067 5.46002H10.5C11.2052 5.15777 11.6636 4.4656 11.6667 3.69835V3.50002C11.6667 2.21136 12.7113 1.16669 14 1.16669C15.2887 1.16669 16.3333 2.21136 16.3333 3.50002V3.60502C16.3364 4.37227 16.7948 5.06444 17.5 5.36669C18.2199 5.68442 19.0608 5.53196 19.6233 4.98169L19.6933 4.91169C20.131 4.47354 20.7249 4.22735 21.3442 4.22735C21.9634 4.22735 22.5573 4.47354 22.995 4.91169C23.4331 5.34935 23.6793 5.94323 23.6793 6.56252C23.6793 7.18181 23.4331 7.77569 22.995 8.21335L22.925 8.28335C22.3747 8.84591 22.2223 9.68675 22.54 10.4067V10.5C22.8422 11.2052 23.5344 11.6636 24.3017 11.6667H24.5C25.7887 11.6667 26.8333 12.7114 26.8333 14C26.8333 15.2887 25.7887 16.3334 24.5 16.3334H24.395C23.6277 16.3364 22.9356 16.7948 22.6333 17.5Z" stroke="#0F1C4C" stroke-width="2" stroke-linecap="round" stroke-linejoin="round"/>
</svg>
