<svg width="28" height="28" viewBox="0 0 28 28" fill="none" xmlns="http://www.w3.org/2000/svg">
<path fill-rule="evenodd" clip-rule="evenodd" d="M9.33333 26.8333C10.622 26.8333 11.6667 25.7886 11.6667 24.5C11.6667 23.2113 10.622 22.1666 9.33333 22.1666C8.04467 22.1666 7 23.2113 7 24.5C7 25.7886 8.04467 26.8333 9.33333 26.8333Z" stroke="#0F1C4C" stroke-width="2" stroke-linecap="round" stroke-linejoin="round"/>
<path fill-rule="evenodd" clip-rule="evenodd" d="M23.3333 26.8333C24.622 26.8333 25.6667 25.7886 25.6667 24.5C25.6667 23.2113 24.622 22.1666 23.3333 22.1666C22.0447 22.1666 21 23.2113 21 24.5C21 25.7886 22.0447 26.8333 23.3333 26.8333Z" stroke="#0F1C4C" stroke-width="2" stroke-linecap="round" stroke-linejoin="round"/>
<path d="M6.61499 6.99996H26.8333L24.8733 16.7883C24.6531 17.8969 23.67 18.6883 22.54 18.6666H10.2083C9.02939 18.6766 8.02822 17.8056 7.87499 16.6366L6.10166 3.19663C5.94955 2.03649 4.96172 1.1684 3.79166 1.16663H1.16666" stroke="#0F1C4C" stroke-width="2" stroke-linecap="round" stroke-linejoin="round"/>
</svg>
