<svg width="217" height="64" viewBox="0 0 217 64" fill="none" xmlns="http://www.w3.org/2000/svg">
<g clip-path="url(#clip0_1077_13793)">
<path d="M198.959 0.000207999H17.3708C16.7088 0.000207999 16.0549 0.000207999 15.3947 0.00340799C14.8421 0.00660798 14.2939 0.0159039 13.736 0.0237279C12.5239 0.0363708 11.3147 0.13089 10.1188 0.306463C8.92463 0.485859 7.76786 0.824071 6.68763 1.30966C5.60871 1.79936 4.62287 2.43567 3.76588 3.19551C2.90438 3.95321 2.18626 4.82902 1.63913 5.78925C1.09048 6.74756 0.710049 7.77449 0.510968 8.83455C0.309995 9.89327 0.20185 10.9642 0.187503 12.0377C0.170752 12.5283 0.168983 13.0205 0.160156 13.5111V50.4938C0.168983 50.9906 0.170752 51.4719 0.187503 51.9688C0.201854 53.0423 0.31 54.1132 0.510968 55.1719C0.709499 56.2326 1.08995 57.2601 1.63913 58.2187C2.18601 59.1759 2.90424 60.0481 3.76588 60.8016C4.61962 61.5648 5.6061 62.2016 6.68763 62.6875C7.76786 63.1744 8.9245 63.5146 10.1188 63.6968C11.3149 63.871 12.524 63.9655 13.736 63.9797C14.2939 63.9906 14.8421 63.9968 15.3947 63.9968C16.0549 64 16.7089 64 17.3708 64H198.959C199.608 64 200.267 64 200.916 63.9968C201.466 63.9968 202.03 63.9906 202.58 63.9797C203.79 63.9663 204.997 63.8717 206.19 63.6968C207.388 63.5134 208.549 63.1732 209.635 62.6875C210.715 62.2013 211.701 61.5646 212.554 60.8016C213.413 60.0452 214.133 59.1735 214.687 58.2187C215.232 57.2594 215.608 56.2319 215.804 55.1719C216.005 54.1131 216.117 53.0424 216.139 51.9688C216.146 51.4719 216.146 50.9906 216.146 50.4938C216.16 49.9125 216.16 49.3344 216.16 48.7437V15.258C216.16 14.672 216.16 14.0908 216.146 13.5111C216.146 13.0205 216.146 12.5283 216.139 12.0377C216.117 10.964 216.005 9.89335 215.804 8.83448C215.608 7.77503 215.231 6.74819 214.687 5.78918C213.572 3.86451 211.805 2.29784 209.635 1.30952C208.549 0.825113 207.388 0.486991 206.19 0.306319C204.997 0.129972 203.79 0.0354203 202.58 0.0235039C202.03 0.015696 201.466 0.00631998 200.916 0.00319999C200.267 0 199.608 0 198.959 0V0.000207999Z" fill="#161B28"/>
<path d="M44.8691 30.5595C44.8885 29.0529 45.2887 27.5757 46.0324 26.2653C46.7762 24.9549 47.8393 23.8539 49.1228 23.0648C48.3074 21.9002 47.2317 20.9419 45.9811 20.2658C44.7305 19.5897 43.3395 19.2145 41.9186 19.1701C38.8875 18.8519 35.9489 20.9838 34.4043 20.9838C32.8298 20.9838 30.4517 19.2017 27.8908 19.2543C26.2343 19.3079 24.62 19.7895 23.2051 20.6525C21.7901 21.5154 20.6228 22.7301 19.8169 24.1783C16.326 30.2224 18.9299 39.1051 22.274 43.9907C23.9471 46.383 25.9024 49.0553 28.461 48.9606C30.9647 48.8567 31.8998 47.364 34.922 47.364C37.9162 47.364 38.7935 48.9606 41.404 48.9003C44.0906 48.8567 45.7833 46.4973 47.3977 44.0824C48.5998 42.3777 49.5248 40.4938 50.1385 38.5002C48.5777 37.8401 47.2457 36.735 46.3086 35.323C45.3716 33.9109 44.8709 32.2542 44.8691 30.5595Z" fill="white"/>
<path d="M39.9383 15.9565C41.4032 14.198 42.1249 11.9378 41.9501 9.65576C39.7121 9.89082 37.6449 10.9604 36.1602 12.6514C35.4344 13.4776 34.8784 14.4386 34.5242 15.4797C34.1699 16.5208 34.0244 17.6215 34.0958 18.7189C35.2152 18.7305 36.3226 18.4878 37.3346 18.0093C38.3466 17.5308 39.2369 16.8289 39.9383 15.9565Z" fill="white"/>
<path d="M76.5175 42.903H67.9735L65.9217 48.9615H62.3027L70.3955 26.5464H74.1554L82.2482 48.9615H78.5676L76.5175 42.903ZM68.8584 40.1072H75.6309L72.2923 30.2746H72.1989L68.8584 40.1072Z" fill="white"/>
<path d="M99.7262 40.7919C99.7262 45.8704 97.008 49.1332 92.9061 49.1332C91.867 49.1876 90.8336 48.9482 89.9242 48.4426C89.0149 47.9369 88.2663 47.1854 87.7642 46.274H87.6865V54.3686H84.332V32.6198H87.5791V35.338H87.6408C88.166 34.431 88.9272 33.6834 89.8435 33.1746C90.7598 32.6659 91.7969 32.415 92.8444 32.4488C96.9921 32.4488 99.7262 35.7275 99.7262 40.7919ZM96.2782 40.7919C96.2782 37.4833 94.5683 35.308 91.9595 35.308C89.3964 35.308 87.6725 37.5291 87.6725 40.7919C87.6725 44.0847 89.3964 46.2899 91.9595 46.2899C94.5684 46.2899 96.2782 44.1306 96.2782 40.7919Z" fill="white"/>
<path d="M117.713 40.7919C117.713 45.8704 114.995 49.1332 110.893 49.1332C109.854 49.1876 108.821 48.9482 107.912 48.4425C107.002 47.9369 106.254 47.1854 105.751 46.274H105.674V54.3685H102.319V32.6198H105.566V35.3379H105.628C106.153 34.431 106.914 33.6833 107.831 33.1746C108.747 32.6659 109.784 32.415 110.832 32.4488C114.979 32.4488 117.713 35.7275 117.713 40.7919ZM114.266 40.7919C114.266 37.4832 112.556 35.308 109.947 35.308C107.384 35.308 105.66 37.529 105.66 40.7919C105.66 44.0847 107.384 46.2899 109.947 46.2899C112.556 46.2899 114.266 44.1305 114.266 40.7919H114.266Z" fill="white"/>
<path d="M129.601 42.7163C129.849 44.9392 132.009 46.3986 134.96 46.3986C137.787 46.3986 139.821 44.9391 139.821 42.9348C139.821 41.195 138.594 40.1532 135.689 39.4393L132.784 38.7395C128.668 37.7453 126.758 35.8204 126.758 32.6968C126.758 28.8293 130.128 26.1729 134.914 26.1729C139.65 26.1729 142.897 28.8293 143.007 32.6968H139.62C139.418 30.4599 137.568 29.1096 134.866 29.1096C132.164 29.1096 130.315 30.4757 130.315 32.4641C130.315 34.0488 131.496 34.9813 134.385 35.6952L136.855 36.3015C141.454 37.3892 143.364 39.2366 143.364 42.5152C143.364 46.7088 140.024 49.3353 134.711 49.3353C129.74 49.3353 126.384 46.7705 126.167 42.7162L129.601 42.7163Z" fill="white"/>
<path d="M150.604 28.752V32.6194H153.712V35.2759H150.604V44.2853C150.604 45.6849 151.226 46.3371 152.592 46.3371C152.961 46.3307 153.33 46.3048 153.696 46.2595V48.9001C153.082 49.0149 152.457 49.0668 151.833 49.0552C148.524 49.0552 147.234 47.8125 147.234 44.6431V35.2759H144.857V32.6194H147.234V28.752H150.604Z" fill="white"/>
<path d="M155.512 40.7915C155.512 35.6496 158.54 32.4185 163.263 32.4185C168.001 32.4185 171.015 35.6495 171.015 40.7915C171.015 45.9475 168.017 49.1645 163.263 49.1645C158.51 49.1645 155.512 45.9475 155.512 40.7915ZM167.597 40.7915C167.597 37.2642 165.981 35.1824 163.263 35.1824C160.544 35.1824 158.93 37.2801 158.93 40.7915C158.93 44.3329 160.544 46.3988 163.263 46.3988C165.981 46.3988 167.597 44.3329 167.597 40.7915H167.597Z" fill="white"/>
<path d="M173.781 32.6197H176.981V35.4012H177.058C177.275 34.5325 177.784 33.7647 178.5 33.227C179.215 32.6894 180.095 32.4145 180.989 32.4486C181.376 32.4473 181.761 32.4893 182.139 32.5738V35.7115C181.65 35.5624 181.141 35.4939 180.631 35.5088C180.144 35.489 179.658 35.5749 179.207 35.7607C178.756 35.9464 178.351 36.2275 178.019 36.5847C177.687 36.9419 177.436 37.3667 177.283 37.83C177.131 38.2933 177.081 38.7841 177.136 39.2687V48.9621H173.781L173.781 32.6197Z" fill="white"/>
<path d="M197.604 44.1619C197.153 47.1286 194.264 49.1645 190.567 49.1645C185.813 49.1645 182.862 45.9793 182.862 40.8691C182.862 35.743 185.829 32.4185 190.426 32.4185C194.948 32.4185 197.791 35.5244 197.791 40.4795V41.6288H186.249V41.8315C186.195 42.433 186.271 43.0389 186.469 43.609C186.668 44.1791 186.986 44.7003 187.402 45.1382C187.818 45.576 188.322 45.9203 188.881 46.1483C189.44 46.3763 190.041 46.4827 190.645 46.4605C191.438 46.5348 192.233 46.3512 192.913 45.937C193.593 45.5229 194.121 44.9003 194.419 44.1619L197.604 44.1619ZM186.264 39.2844H194.435C194.465 38.7436 194.383 38.2024 194.194 37.6948C194.005 37.1872 193.713 36.7241 193.337 36.3347C192.96 35.9452 192.508 35.6377 192.007 35.4316C191.506 35.2254 190.968 35.125 190.426 35.1366C189.88 35.1334 189.338 35.2383 188.833 35.4454C188.328 35.6525 187.868 35.9577 187.481 36.3433C187.094 36.729 186.787 37.1874 186.579 37.6922C186.37 38.197 186.263 38.7381 186.264 39.2844V39.2844Z" fill="white"/>
<path d="M68.4382 9.67384C69.1415 9.62337 69.8472 9.72962 70.5045 9.98491C71.1617 10.2402 71.7541 10.6382 72.2389 11.1501C72.7237 11.6621 73.0888 12.2753 73.308 12.9454C73.5271 13.6156 73.5948 14.3261 73.5061 15.0255C73.5061 18.4664 71.6464 20.4443 68.4382 20.4443H64.5479V9.67384H68.4382ZM66.2207 18.9211H68.2514C68.7539 18.9512 69.2568 18.8688 69.7235 18.6799C70.1902 18.4911 70.6089 18.2006 70.9491 17.8295C71.2893 17.4585 71.5426 17.0162 71.6903 16.535C71.8381 16.0537 71.8767 15.5455 71.8033 15.0475C71.8714 14.5514 71.8289 14.0464 71.6788 13.5687C71.5288 13.0909 71.2749 12.6523 70.9355 12.2842C70.596 11.9161 70.1793 11.6276 69.7153 11.4395C69.2512 11.2513 68.7513 11.1681 68.2514 11.1959H66.2207V18.9211Z" fill="white"/>
<path d="M75.3951 16.3765C75.344 15.8423 75.4051 15.3034 75.5745 14.7942C75.7439 14.2851 76.0178 13.817 76.3787 13.4199C76.7396 13.0228 77.1795 12.7055 77.6702 12.4884C78.1609 12.2713 78.6916 12.1592 79.2282 12.1592C79.7648 12.1592 80.2954 12.2713 80.7861 12.4884C81.2768 12.7055 81.7168 13.0228 82.0777 13.4199C82.4386 13.817 82.7125 14.2851 82.8819 14.7942C83.0513 15.3034 83.1124 15.8423 83.0613 16.3765C83.1133 16.9112 83.053 17.4508 82.884 17.9608C82.7151 18.4708 82.4413 18.9398 82.0803 19.3376C81.7193 19.7355 81.2791 20.0534 80.7879 20.271C80.2967 20.4886 79.7654 20.601 79.2282 20.601C78.691 20.601 78.1597 20.4886 77.6685 20.271C77.1773 20.0534 76.737 19.7355 76.376 19.3376C76.015 18.9398 75.7413 18.4708 75.5723 17.9608C75.4034 17.4508 75.343 16.9112 75.3951 16.3765ZM81.4113 16.3765C81.4113 14.6146 80.6198 13.5843 79.2308 13.5843C77.8365 13.5843 77.0521 14.6146 77.0521 16.3765C77.0521 18.1525 77.8365 19.1748 79.2308 19.1748C80.6199 19.1748 81.4113 18.1454 81.4113 16.3765H81.4113Z" fill="white"/>
<path d="M93.253 20.4439H91.589L89.9091 14.4576H89.7822L88.1093 20.4439H86.4612L84.2207 12.3159H85.8477L87.3038 18.5181H87.4236L89.0947 12.3159H90.6336L92.3047 18.5181H92.4316L93.8806 12.3159H95.4847L93.253 20.4439Z" fill="white"/>
<path d="M97.3682 12.3158H98.9123V13.607H99.0322C99.2356 13.1432 99.5785 12.7545 100.013 12.4949C100.448 12.2353 100.953 12.1179 101.458 12.1589C101.853 12.1291 102.25 12.1888 102.62 12.3334C102.989 12.4779 103.321 12.7038 103.591 12.9941C103.861 13.2844 104.063 13.6318 104.18 14.0106C104.298 14.3893 104.329 14.7897 104.271 15.182V20.4437H102.667V15.5848C102.667 14.2786 102.099 13.629 100.913 13.629C100.645 13.6165 100.376 13.6622 100.127 13.763C99.8781 13.8638 99.6536 14.0172 99.4693 14.2129C99.2849 14.4085 99.1451 14.6417 99.0593 14.8965C98.9735 15.1512 98.9438 15.4215 98.9723 15.6888V20.4438H97.3682L97.3682 12.3158Z" fill="white"/>
<path d="M106.827 9.14307H108.431V20.444H106.827V9.14307Z" fill="white"/>
<path d="M110.661 16.3766C110.61 15.8424 110.671 15.3035 110.84 14.7943C111.01 14.2851 111.284 13.817 111.645 13.4199C112.005 13.0228 112.445 12.7055 112.936 12.4884C113.427 12.2713 113.958 12.1592 114.494 12.1592C115.031 12.1592 115.562 12.2713 116.052 12.4884C116.543 12.7055 116.983 13.0228 117.344 13.4199C117.705 13.817 117.979 14.2851 118.148 14.7943C118.318 15.3035 118.379 15.8424 118.328 16.3766C118.38 16.9113 118.319 17.451 118.15 17.961C117.981 18.471 117.708 18.9399 117.346 19.3378C116.985 19.7356 116.545 20.0535 116.054 20.2711C115.563 20.4887 115.031 20.6011 114.494 20.6011C113.957 20.6011 113.426 20.4887 112.934 20.2711C112.443 20.0535 112.003 19.7356 111.642 19.3378C111.281 18.9399 111.007 18.471 110.838 17.961C110.669 17.451 110.609 16.9113 110.661 16.3766ZM116.677 16.3766C116.677 14.6148 115.885 13.5844 114.496 13.5844C113.102 13.5844 112.318 14.6148 112.318 16.3766C112.318 18.1526 113.102 19.175 114.496 19.175C115.885 19.175 116.677 18.1455 116.677 16.3766H116.677Z" fill="white"/>
<path d="M120.018 18.1455C120.018 16.6824 121.107 15.8389 123.041 15.719L125.242 15.5921V14.8906C125.242 14.0321 124.675 13.5473 123.578 13.5473C122.683 13.5473 122.062 13.8761 121.884 14.4507H120.331C120.495 13.0546 121.809 12.1592 123.652 12.1592C125.69 12.1592 126.839 13.1736 126.839 14.8906V20.4441H125.295V19.3018H125.168C124.911 19.7116 124.549 20.0456 124.12 20.2698C123.691 20.494 123.21 20.6004 122.727 20.578C122.386 20.6135 122.041 20.5771 121.715 20.4711C121.388 20.3652 121.088 20.192 120.833 19.9628C120.577 19.7337 120.373 19.4535 120.233 19.1405C120.092 18.8275 120.019 18.4885 120.018 18.1455ZM125.242 17.4509V16.7714L123.258 16.8983C122.138 16.9732 121.63 17.354 121.63 18.0705C121.63 18.8021 122.265 19.2278 123.138 19.2278C123.393 19.2537 123.652 19.2278 123.897 19.1519C124.143 19.0759 124.37 18.9513 124.567 18.7855C124.763 18.6197 124.924 18.4162 125.04 18.1869C125.156 17.9576 125.225 17.7073 125.242 17.4509Z" fill="white"/>
<path d="M128.947 16.3765C128.947 13.8082 130.268 12.1812 132.321 12.1812C132.829 12.1578 133.333 12.2794 133.775 12.532C134.216 12.7845 134.576 13.1574 134.814 13.6072H134.934V9.14307H136.538V20.444H135.001V19.1599H134.874C134.618 19.6066 134.245 19.9749 133.795 20.2249C133.345 20.4748 132.836 20.5969 132.321 20.578C130.253 20.5781 128.947 18.951 128.947 16.3765ZM130.604 16.3765C130.604 18.1005 131.417 19.1379 132.776 19.1379C134.128 19.1379 134.964 18.0855 134.964 16.3836C134.964 14.6896 134.119 13.6222 132.776 13.6222C131.426 13.6222 130.604 14.6667 130.604 16.3765H130.604Z" fill="white"/>
<path d="M143.173 16.3765C143.122 15.8423 143.183 15.3034 143.353 14.7942C143.522 14.2851 143.796 13.817 144.157 13.4199C144.518 13.0228 144.958 12.7055 145.449 12.4884C145.939 12.2713 146.47 12.1592 147.007 12.1592C147.543 12.1592 148.074 12.2713 148.564 12.4884C149.055 12.7055 149.495 13.0228 149.856 13.4199C150.217 13.817 150.491 14.2851 150.66 14.7942C150.83 15.3034 150.891 15.8423 150.84 16.3765C150.892 16.9112 150.831 17.4508 150.662 17.9608C150.493 18.4708 150.22 18.9398 149.859 19.3376C149.498 19.7355 149.057 20.0534 148.566 20.271C148.075 20.4886 147.544 20.601 147.007 20.601C146.469 20.601 145.938 20.4886 145.447 20.271C144.956 20.0534 144.515 19.7355 144.154 19.3376C143.793 18.9398 143.52 18.4708 143.351 17.9608C143.182 17.4508 143.121 16.9112 143.173 16.3765ZM149.19 16.3765C149.19 14.6146 148.398 13.5843 147.009 13.5843C145.615 13.5843 144.83 14.6146 144.83 16.3765C144.83 18.1525 145.615 19.1748 147.009 19.1748C148.398 19.1748 149.19 18.1454 149.19 16.3765Z" fill="white"/>
<path d="M152.993 12.3158H154.537V13.607H154.657C154.861 13.1432 155.204 12.7545 155.638 12.4949C156.073 12.2353 156.578 12.1179 157.083 12.1589C157.478 12.1291 157.875 12.1888 158.245 12.3334C158.614 12.4779 158.946 12.7038 159.216 12.9941C159.486 13.2844 159.688 13.6318 159.805 14.0106C159.923 14.3893 159.954 14.7897 159.896 15.182V20.4437H158.292V15.5848C158.292 14.2786 157.724 13.629 156.538 13.629C156.27 13.6165 156.001 13.6622 155.752 13.763C155.503 13.8638 155.279 14.0172 155.094 14.2129C154.91 14.4085 154.77 14.6417 154.684 14.8965C154.599 15.1512 154.569 15.4215 154.597 15.6888V20.4438H152.993V12.3158Z" fill="white"/>
<path d="M168.961 10.2925V12.3531H170.722V13.7043H168.961V17.8838C168.961 18.7352 169.311 19.108 170.11 19.108C170.314 19.1073 170.519 19.095 170.722 19.071V20.4071C170.434 20.4586 170.142 20.4861 169.849 20.4891C168.065 20.4891 167.355 19.8615 167.355 18.2945V13.7042H166.064V12.3531H167.355V10.2925H168.961Z" fill="white"/>
<path d="M172.912 9.14307H174.502V13.6222H174.629C174.842 13.1541 175.195 12.7632 175.638 12.5026C176.082 12.2421 176.595 12.1246 177.107 12.1662C177.501 12.1448 177.894 12.2105 178.259 12.3586C178.624 12.5066 178.952 12.7335 179.22 13.0229C179.487 13.3123 179.687 13.6572 179.806 14.0329C179.925 14.4086 179.959 14.8058 179.907 15.1963V20.4441H178.301V15.5921C178.301 14.2938 177.696 13.6363 176.563 13.6363C176.287 13.6137 176.01 13.6516 175.75 13.7474C175.491 13.8431 175.255 13.9944 175.06 14.1907C174.865 14.387 174.716 14.6235 174.622 14.8837C174.528 15.1438 174.492 15.4214 174.516 15.6969V20.444H172.912L172.912 9.14307Z" fill="white"/>
<path d="M189.26 18.2496C189.042 18.9925 188.569 19.635 187.926 20.0649C187.282 20.4948 186.507 20.6846 185.738 20.6011C185.202 20.6152 184.67 20.5127 184.178 20.3005C183.686 20.0884 183.246 19.7717 182.889 19.3726C182.532 18.9734 182.266 18.5013 182.109 17.989C181.953 17.4767 181.91 16.9364 181.983 16.4058C181.912 15.8735 181.955 15.3321 182.112 14.8182C182.268 14.3044 182.532 13.8301 182.888 13.4274C183.243 13.0248 183.681 12.7032 184.171 12.4844C184.662 12.2656 185.193 12.1547 185.73 12.1593C187.992 12.1593 189.356 13.7044 189.356 16.2568V16.8165H183.617V16.9064C183.592 17.2047 183.629 17.5049 183.727 17.7879C183.825 18.0708 183.98 18.3302 184.184 18.5494C184.388 18.7687 184.635 18.9429 184.911 19.0609C185.186 19.179 185.482 19.2382 185.782 19.2349C186.165 19.281 186.554 19.2119 186.898 19.0364C187.243 18.861 187.527 18.5871 187.715 18.2495L189.26 18.2496ZM183.617 15.6302H187.722C187.743 15.3574 187.705 15.0834 187.614 14.8257C187.522 14.5681 187.377 14.3326 187.188 14.1343C187 13.936 186.772 13.7793 186.519 13.6743C186.267 13.5693 185.995 13.5183 185.722 13.5246C185.444 13.5211 185.169 13.5732 184.912 13.6778C184.655 13.7824 184.421 13.9373 184.225 14.1336C184.029 14.3298 183.874 14.5633 183.77 14.8204C183.665 15.0774 183.613 15.3527 183.617 15.6302H183.617Z" fill="white"/>
</g>
<defs>
<clipPath id="clip0_1077_13793">
<rect width="216" height="64" fill="white" transform="translate(0.160156)"/>
</clipPath>
</defs>
</svg>
