<svg width="216" height="64" viewBox="0 0 216 64" fill="none" xmlns="http://www.w3.org/2000/svg">
<g clip-path="url(#clip0_1077_13780)">
<path fill-rule="evenodd" clip-rule="evenodd" d="M207.997 64H8.00294C3.59219 64 0 60.393 0 56V8C0 3.59102 3.59219 0 8.00294 0H207.997C212.404 0 216 3.59102 216 8V56C216 60.393 212.404 64 207.997 64Z" fill="#161B28"/>
<path d="M113.789 21.1708C112.347 21.1708 111.131 20.6641 110.169 19.6666C109.216 18.697 108.683 17.3604 108.707 15.9958C108.707 14.5394 109.2 13.3065 110.169 12.3289C111.127 11.3314 112.343 10.8247 113.785 10.8247C115.212 10.8247 116.428 11.3314 117.405 12.3289C118.375 13.3384 118.868 14.5713 118.868 15.9958C118.852 17.4561 118.359 18.689 117.405 19.6626C116.448 20.6681 115.232 21.1708 113.789 21.1708ZM70.8703 21.1708C69.4596 21.1708 68.2357 20.6721 67.2344 19.6866C66.241 18.705 65.7363 17.4641 65.7363 15.9998C65.7363 14.5354 66.241 13.2945 67.2344 12.313C68.2159 11.3275 69.4398 10.8287 70.8703 10.8287C71.5696 10.8287 72.2491 10.9683 72.9008 11.2516C73.5405 11.527 74.0611 11.902 74.4465 12.3609L74.5419 12.4766L73.465 13.5379L73.3538 13.4063C72.7458 12.6801 71.9312 12.325 70.8544 12.325C69.8927 12.325 69.0543 12.6681 68.3629 13.3464C67.6675 14.0287 67.3139 14.9225 67.3139 16.0038C67.3139 17.0851 67.6675 17.9788 68.3629 18.6611C69.0543 19.3394 69.8927 19.6826 70.8544 19.6826C71.8796 19.6826 72.7418 19.3394 73.4134 18.6611C73.8107 18.2621 74.0571 17.7035 74.1445 16.9973H70.6914V15.505H75.6267L75.6466 15.6407C75.6823 15.892 75.7181 16.1514 75.7181 16.3908C75.7181 17.7674 75.3048 18.8806 74.4863 19.7025C73.5564 20.6761 72.3405 21.1708 70.8703 21.1708ZM127.936 20.9594H126.414L121.753 13.4701L121.792 14.8187V20.9554H120.27V11.0402H122.007L122.055 11.116L126.438 18.1703L126.398 16.8257V11.0402H127.936V20.9594ZM102.353 20.9594H100.812V12.5324H98.1373V11.0402H105.024V12.5324H102.349V20.9594H102.353ZM96.8817 20.9594H95.3439V11.0402H96.8817V20.9594ZM88.239 20.9594H86.7012V12.5324H84.027V11.0402H90.9133V12.5324H88.239V20.9594ZM83.0534 20.9434H77.1565V11.0402H83.0534V12.5324H78.6983V15.2536H82.6282V16.7299H78.6983V19.4511H83.0534V20.9434ZM111.298 18.6412C111.985 19.3314 112.82 19.6786 113.789 19.6786C114.787 19.6786 115.601 19.3394 116.281 18.6412C116.956 17.9629 117.298 17.0731 117.298 15.9998C117.298 14.9265 116.956 14.0327 116.285 13.3584C115.597 12.6681 114.759 12.321 113.793 12.321C112.796 12.321 111.981 12.6601 111.306 13.3584C110.63 14.0367 110.289 14.9265 110.289 15.9998C110.289 17.0731 110.626 17.9669 111.298 18.6412Z" fill="white"/>
<path fill-rule="evenodd" clip-rule="evenodd" d="M108.565 34.8086C104.81 34.8086 101.766 37.6694 101.766 41.6156C101.766 45.5258 104.829 48.4225 108.565 48.4225C112.32 48.4225 115.364 45.5417 115.364 41.6156C115.364 37.6694 112.32 34.8086 108.565 34.8086ZM108.565 45.7253C106.51 45.7253 104.742 44.0175 104.742 41.5996C104.742 39.1457 106.514 37.4739 108.565 37.4739C110.619 37.4739 112.387 39.1457 112.387 41.5996C112.391 44.0335 110.619 45.7253 108.565 45.7253ZM93.731 34.8086C89.9759 34.8086 86.9321 37.6694 86.9321 41.6156C86.9321 45.5258 89.9958 48.4225 93.731 48.4225C97.4861 48.4225 100.53 45.5417 100.53 41.6156C100.53 37.6694 97.4822 34.8086 93.731 34.8086ZM93.731 45.7253C91.6766 45.7253 89.9084 44.0175 89.9084 41.5996C89.9084 39.1457 91.6806 37.4739 93.731 37.4739C95.7854 37.4739 97.5537 39.1457 97.5537 41.5996C97.5537 44.0335 95.7854 45.7253 93.731 45.7253ZM76.08 36.8874V39.7682H82.9664C82.7558 41.3841 82.2233 42.5771 81.4087 43.3951C80.3994 44.4086 78.8417 45.5098 76.0959 45.5098C71.864 45.5098 68.5539 42.0784 68.5539 37.829C68.5539 33.5796 71.864 30.1482 76.0959 30.1482C78.3808 30.1482 80.0457 31.054 81.2815 32.2111L83.316 30.1682C81.5994 28.5163 79.3146 27.2515 76.1118 27.2515C70.3063 27.2515 65.4346 31.9996 65.4346 37.8131C65.4346 43.6425 70.3023 48.3747 76.1118 48.3747C79.247 48.3747 81.5994 47.3452 83.4591 45.4061C85.3545 43.5028 85.9546 40.8175 85.9546 38.651C85.9546 37.9767 85.9029 37.3702 85.7956 36.8555H76.076C76.08 36.8515 76.08 36.8874 76.08 36.8874ZM148.277 39.1298C147.709 37.6016 145.993 34.7926 142.472 34.7926C138.983 34.7926 136.082 37.5497 136.082 41.5996C136.082 45.422 138.951 48.4066 142.81 48.4066C145.909 48.4066 147.713 46.5033 148.456 45.3861L146.156 43.838C145.393 44.9752 144.332 45.7213 142.826 45.7213C141.304 45.7213 140.239 45.027 139.531 43.6584L148.595 39.8879C148.595 39.8919 148.277 39.1298 148.277 39.1298ZM139.035 41.4041C138.963 38.7747 141.069 37.438 142.575 37.438C143.763 37.438 144.753 38.0245 145.091 38.8784L139.035 41.4041ZM131.672 47.9996H134.648V28.0016H131.672V47.9996ZM126.784 36.3208H126.677C126.005 35.5188 124.73 34.7926 123.1 34.7926C119.719 34.7926 116.603 37.7811 116.603 41.6195C116.603 45.442 119.703 48.3946 123.1 48.3946C124.71 48.3946 126.005 47.6644 126.677 46.8465H126.784V47.824C126.784 50.4215 125.401 51.822 123.172 51.822C121.348 51.822 120.215 50.5053 119.755 49.4041L117.168 50.4894C117.911 52.2849 119.894 54.5073 123.168 54.5073C126.657 54.5073 129.613 52.4445 129.613 47.4131V35.1996H126.8V36.3208C126.804 36.3208 126.784 36.3208 126.784 36.3208ZM123.367 45.7253C121.312 45.7253 119.596 44.0016 119.596 41.6195C119.596 39.2175 121.312 37.4779 123.367 37.4779C125.401 37.4779 126.979 39.2375 126.979 41.6195C126.999 44.0016 125.405 45.7253 123.367 45.7253ZM162.213 28.0016H155.096V47.9996H158.073V40.4265H162.217C165.511 40.4265 168.75 38.0285 168.75 34.222C168.75 30.4156 165.523 28.0016 162.213 28.0016ZM162.301 37.6335H158.069V30.7707H162.301C164.53 30.7707 165.789 32.618 165.789 34.2021C165.789 35.7702 164.514 37.6335 162.301 37.6335ZM180.679 34.7727C178.517 34.7727 176.288 35.7343 175.366 37.829L178.004 38.9303C178.573 37.829 179.614 37.454 180.714 37.454C182.256 37.454 183.814 38.3796 183.85 40.0315V40.243C183.317 39.9397 182.149 39.4769 180.75 39.4769C177.901 39.4769 175.012 41.041 175.012 43.9737C175.012 46.6589 177.349 48.3826 179.952 48.3826C181.95 48.3826 183.051 47.4769 183.738 46.4275H183.846V47.9757H186.715V40.3148C186.715 36.7477 184.076 34.7727 180.679 34.7727ZM180.305 45.7253C179.332 45.7253 177.969 45.2465 177.969 44.0175C177.969 42.4694 179.669 41.8829 181.12 41.8829C182.431 41.8829 183.051 42.1662 183.83 42.5572C183.615 44.3527 182.105 45.7093 180.305 45.7253ZM197.181 35.1996L193.764 43.8739H193.657L190.116 35.1996H186.913L192.226 47.3253L189.198 54.0644H192.298L200.472 35.1996H197.181ZM170.391 47.9996H173.367V28.0016H170.391V47.9996Z" fill="white"/>
<path fill-rule="evenodd" clip-rule="evenodd" d="M16.6256 12.0535C16.1647 12.5523 15.8984 13.3144 15.8984 14.3119V49.6914C15.8984 50.6889 16.1647 51.451 16.6415 51.9298L16.7647 52.0376L36.5058 32.2151V31.7722L16.7488 11.9458L16.6256 12.0535Z" fill="url(#paint0_linear_1077_13780)"/>
<path fill-rule="evenodd" clip-rule="evenodd" d="M43.0746 38.8425L36.4902 32.2311V31.7682L43.0746 25.1567L43.2177 25.2445L51.0061 29.6894C53.2353 30.9503 53.2353 33.033 51.0061 34.3099L43.2177 38.7547L43.0746 38.8425Z" fill="url(#paint1_linear_1077_13780)"/>
<path fill-rule="evenodd" clip-rule="evenodd" d="M43.2177 38.7551L36.4903 32L16.626 51.9461C17.3532 52.7282 18.5731 52.816 19.936 52.0539L43.2177 38.7551Z" fill="url(#paint2_linear_1077_13780)"/>
<path fill-rule="evenodd" clip-rule="evenodd" d="M43.2177 25.2444L19.936 11.9656C18.5731 11.1836 17.3492 11.2913 16.626 12.0733L36.4903 31.9995L43.2177 25.2444Z" fill="url(#paint3_linear_1077_13780)"/>
<path opacity="0.2" fill-rule="evenodd" clip-rule="evenodd" d="M43.0745 38.6113L19.9517 51.8023C18.6602 52.5484 17.5079 52.4966 16.7648 51.8183L16.6416 51.942L16.7648 52.0497C17.5079 52.724 18.6602 52.7799 19.9517 52.0337L43.2335 38.755L43.0745 38.6113Z" fill="#161B28"/>
<path opacity="0.12" fill-rule="evenodd" clip-rule="evenodd" d="M51.006 34.0788L43.0547 38.6115L43.1977 38.7551L50.9861 34.3102C52.1027 33.6718 52.6511 32.8339 52.6511 32C52.5835 32.7661 52.0153 33.4923 51.006 34.0788Z" fill="#161B28"/>
<path opacity="0.25" fill-rule="evenodd" clip-rule="evenodd" d="M19.9357 12.1972L51.0057 29.9209C52.015 30.4914 52.5832 31.2376 52.6707 31.9997C52.6707 31.1658 52.1223 30.3278 51.0057 29.6894L19.9357 11.9658C17.7065 10.685 15.8984 11.7543 15.8984 14.3119V14.5433C15.8984 11.9817 17.7065 10.9323 19.9357 12.1972Z" fill="white"/>
</g>
<defs>
<linearGradient id="paint0_linear_1077_13780" x1="34.7351" y1="13.9302" x2="3.09603" y2="22.3259" gradientUnits="userSpaceOnUse">
<stop stop-color="#00A0FF"/>
<stop offset="0.00657" stop-color="#00A1FF"/>
<stop offset="0.2601" stop-color="#00BEFF"/>
<stop offset="0.5122" stop-color="#00D2FF"/>
<stop offset="0.7604" stop-color="#00DFFF"/>
<stop offset="1" stop-color="#00E3FF"/>
</linearGradient>
<linearGradient id="paint1_linear_1077_13780" x1="53.9132" y1="31.9997" x2="15.3568" y2="31.9997" gradientUnits="userSpaceOnUse">
<stop stop-color="#FFE000"/>
<stop offset="0.4087" stop-color="#FFBD00"/>
<stop offset="0.7754" stop-color="#FFA500"/>
<stop offset="1" stop-color="#FF9C00"/>
</linearGradient>
<linearGradient id="paint2_linear_1077_13780" x1="39.5596" y1="35.6757" x2="14.0191" y2="78.4861" gradientUnits="userSpaceOnUse">
<stop stop-color="#FF3A44"/>
<stop offset="1" stop-color="#C31162"/>
</linearGradient>
<linearGradient id="paint3_linear_1077_13780" x1="11.6239" y1="0.285599" x2="23.0186" y2="19.4054" gradientUnits="userSpaceOnUse">
<stop stop-color="#32A071"/>
<stop offset="0.0685" stop-color="#2DA771"/>
<stop offset="0.4762" stop-color="#15CF74"/>
<stop offset="0.8009" stop-color="#06E775"/>
<stop offset="1" stop-color="#00F076"/>
</linearGradient>
<clipPath id="clip0_1077_13780">
<rect width="216" height="64" fill="white"/>
</clipPath>
</defs>
</svg>
