<svg width="1047" height="472" viewBox="0 0 1047 472" fill="none" xmlns="http://www.w3.org/2000/svg">
<g style="mix-blend-mode:multiply" opacity="0.12" clip-path="url(#clip0_303_3394)">
<path d="M377.661 37.0228C367.827 35.5504 357.811 38.0448 349.816 43.9572C341.822 49.8695 336.503 58.7156 335.031 68.5494L353.57 71.3252C354.119 67.6585 355.743 64.2369 358.237 61.4932C360.73 58.7495 363.981 56.8068 367.579 55.9108C371.177 55.0149 374.959 55.2059 378.448 56.4597C381.937 57.7134 384.976 59.9737 387.181 62.9547C389.386 65.9356 390.657 69.5033 390.833 73.2067C391.01 76.91 390.085 80.5826 388.175 83.7601C386.264 86.9376 383.455 89.4772 380.101 91.0578C376.747 92.6385 373 93.1891 369.333 92.6401C366.875 92.272 364.371 92.8956 362.372 94.3737C360.374 95.8518 359.044 98.0633 358.676 100.522L354.512 128.33L373.051 131.106L376.007 111.362C385.062 110.389 393.453 106.155 399.613 99.4483C405.774 92.742 409.283 84.0228 409.485 74.9186C409.688 65.8144 406.57 56.9477 400.714 49.9742C394.857 43.0006 386.663 38.397 377.661 37.0228Z" fill="#27335E"/>
<path d="M351.736 146.87L370.275 149.645L367.5 168.185L348.961 165.409L351.736 146.87Z" fill="#27335E"/>
<path d="M494.497 206.154L519.48 39.3022C520.584 31.9269 518.713 24.415 514.279 18.419C509.845 12.4231 503.21 8.43417 495.835 7.32988L273.366 -25.9798C265.99 -27.0841 258.479 -25.2134 252.483 -20.7791C246.487 -16.3448 242.498 -9.71023 241.393 -2.33492L216.411 164.517C215.307 171.892 217.178 179.404 221.612 185.4C226.046 191.396 232.681 195.385 240.056 196.489L311.061 207.121L329.614 298.417C329.996 300.304 330.949 302.027 332.344 303.353C333.74 304.679 335.509 305.544 337.413 305.829C339.317 306.114 341.262 305.806 342.985 304.946C344.707 304.087 346.123 302.718 347.041 301.026L391.52 219.168L462.525 229.799C469.9 230.903 477.412 229.032 483.408 224.598C489.404 220.164 493.393 213.529 494.497 206.154ZM387.807 199.657C385.902 199.373 383.956 199.682 382.233 200.543C380.51 201.404 379.094 202.776 378.178 204.47L342.866 269.41L328.123 196.976C327.743 195.087 326.791 193.361 325.396 192.033C324.001 190.705 322.23 189.839 320.325 189.553L242.832 177.95C240.373 177.582 238.162 176.252 236.684 174.254C235.206 172.255 234.582 169.751 234.95 167.293L259.932 0.440887C260.301 -2.01755 261.63 -4.22907 263.629 -5.70716C265.628 -7.18526 268.132 -7.80885 270.59 -7.44075L493.059 25.869C495.517 26.2371 497.729 27.5667 499.207 29.5654C500.685 31.564 501.309 34.068 500.941 36.5264L475.958 203.378C475.59 205.837 474.261 208.048 472.262 209.526C470.263 211.004 467.759 211.628 465.301 211.26L387.807 199.657Z" fill="#27335E"/>
<path d="M510.757 350.749C500.923 349.277 490.908 351.771 482.913 357.683C474.918 363.596 469.6 372.442 468.127 382.275L486.666 385.051C487.215 381.385 488.839 377.963 491.333 375.219C493.827 372.476 497.078 370.533 500.675 369.637C504.273 368.741 508.056 368.932 511.545 370.186C515.034 371.44 518.073 373.7 520.277 376.681C522.482 379.662 523.753 383.229 523.93 386.933C524.107 390.636 523.182 394.309 521.271 397.486C519.361 400.664 516.551 403.203 513.197 404.784C509.844 406.365 506.096 406.915 502.43 406.366C499.971 405.998 497.467 406.622 495.469 408.1C493.47 409.578 492.14 411.789 491.772 414.248L487.609 442.056L506.148 444.832L509.104 425.088C518.158 424.115 526.549 419.881 532.71 413.174C538.87 406.468 542.379 397.749 542.582 388.645C542.784 379.54 539.666 370.674 533.81 363.7C527.954 356.727 519.759 352.123 510.757 350.749Z" fill="#27335E"/>
<path d="M484.833 460.596L503.372 463.372L500.596 481.911L482.057 479.135L484.833 460.596Z" fill="#27335E"/>
<path d="M155.739 316.548C160.656 317.284 165.079 319.943 168.035 323.94C170.991 327.938 172.238 332.946 171.502 337.862C170.766 342.779 168.106 347.202 164.109 350.159C160.112 353.115 155.104 354.362 150.187 353.626C147.729 353.258 145.225 353.881 143.226 355.359C141.227 356.837 139.898 359.049 139.53 361.507L135.366 389.316L153.905 392.092L156.861 372.348C163.837 371.619 170.468 368.949 176.001 364.64C181.535 360.331 185.749 354.556 188.165 347.972C190.58 341.388 191.1 334.258 189.666 327.393C188.232 320.528 184.901 314.202 180.052 309.136C175.203 304.069 169.029 300.464 162.234 298.731C155.438 296.997 148.292 297.205 141.608 299.33C134.925 301.454 128.971 305.411 124.424 310.751C119.876 316.09 116.918 322.598 115.885 329.535L134.424 332.311C135.16 327.394 137.819 322.971 141.817 320.015C145.814 317.059 150.822 315.811 155.739 316.548Z" fill="#27335E"/>
<path d="M132.59 407.855L151.129 410.631L148.353 429.17L129.814 426.395L132.59 407.855Z" fill="#27335E"/>
<path d="M50.1063 452.369L112.583 461.724L181.466 545.392C182.935 547.192 185.019 548.382 187.316 548.732C188.98 548.954 190.673 548.751 192.237 548.142C194.127 547.432 195.737 546.132 196.828 544.434C197.918 542.736 198.432 540.732 198.292 538.718L192.765 473.729L216.958 477.351C224.333 478.456 231.845 476.585 237.841 472.151C243.837 467.716 247.826 461.082 248.93 453.706L271.137 305.394C272.241 298.018 270.37 290.507 265.936 284.511C261.502 278.515 254.867 274.526 247.492 273.421L80.6402 248.439C73.2649 247.335 65.753 249.206 59.757 253.64C53.761 258.074 49.7721 264.709 48.6678 272.084L26.4613 420.397C25.3571 427.772 27.2278 435.284 31.6621 441.28C36.0964 447.276 42.731 451.265 50.1063 452.369ZM67.2069 274.86C67.575 272.401 68.9046 270.19 70.9033 268.712C72.902 267.234 75.4059 266.61 77.8644 266.978L244.716 291.96C247.175 292.329 249.386 293.658 250.864 295.657C252.342 297.656 252.966 300.159 252.598 302.618L230.391 450.931C230.023 453.389 228.694 455.601 226.695 457.079C224.696 458.557 222.192 459.18 219.734 458.812L183.768 453.427C182.354 453.176 180.902 453.254 179.523 453.653C178.144 454.053 176.875 454.764 175.814 455.732C174.754 456.699 173.93 457.898 173.405 459.234C172.881 460.571 172.671 462.01 172.791 463.441L176.664 510.365L124.453 447.01C122.984 445.21 120.9 444.02 118.603 443.67L52.8821 433.83C50.4236 433.462 48.2121 432.132 46.734 430.134C45.2559 428.135 44.6323 425.631 45.0004 423.173L67.2069 274.86Z" fill="#27335E"/>
<path d="M599.735 326.162L432.883 301.18C425.508 300.076 417.996 301.946 412 306.381C406.004 310.815 402.015 317.449 400.911 324.825L378.704 473.137C377.6 480.513 379.471 488.025 383.905 494.021C388.339 500.017 394.974 504.006 402.349 505.11L426.542 508.732L402.222 569.253C401.478 571.103 401.344 573.142 401.839 575.074C402.334 577.006 403.432 578.73 404.974 579.995C406.366 581.094 408.027 581.801 409.785 582.042C412.083 582.38 414.425 581.852 416.356 580.562L506.724 520.738L569.201 530.092C576.576 531.196 584.088 529.326 590.084 524.891C596.08 520.457 600.069 513.822 601.173 506.447L623.38 358.134C624.484 350.759 622.613 343.247 618.179 337.251C613.744 331.255 607.11 327.266 599.735 326.162ZM582.634 503.671C582.266 506.13 580.936 508.341 578.938 509.819C576.939 511.298 574.435 511.921 571.977 511.553L505.977 501.671C503.679 501.333 501.337 501.861 499.406 503.151L430.928 548.436L448.375 504.704C448.909 503.371 449.13 501.933 449.02 500.502C448.91 499.07 448.473 497.683 447.742 496.447C447.012 495.211 446.007 494.16 444.805 493.374C443.604 492.588 442.238 492.088 440.812 491.914L405.125 486.571C402.666 486.203 400.455 484.873 398.977 482.874C397.499 480.876 396.875 478.372 397.243 475.913L419.45 327.601C419.818 325.142 421.147 322.931 423.146 321.452C425.145 319.974 427.649 319.351 430.107 319.719L596.959 344.701C599.417 345.069 601.629 346.399 603.107 348.398C604.585 350.396 605.209 352.9 604.84 355.359L582.634 503.671Z" fill="#27335E"/>
</g>
<path d="M1045.36 -294H1322.28L888.025 1030H611L1045.36 -294Z" fill="#27335E"/>
<defs>
<clipPath id="clip0_303_3394">
<rect width="599.864" height="599.864" fill="white" transform="translate(89.3629 -63.0073) rotate(8.51549)"/>
</clipPath>
</defs>
</svg>
