<svg width="24" height="24" viewBox="0 0 24 24" fill="none" xmlns="http://www.w3.org/2000/svg">
<path d="M0 5.12621C0 2.29508 2.29508 0 5.12621 0H18.8738C21.7049 0 24 2.29508 24 5.12621V18.8738C24 21.7049 21.7049 24 18.8738 24H5.12621C2.29508 24 0 21.7049 0 18.8738V5.12621Z" fill="#0F1C4C"/>
<path d="M17.0117 5.89648H20.0386L16.0845 17.973H13.0566L17.0117 5.89648Z" fill="#00E889"/>
<path d="M10.1148 10.7145C8.73407 10.5152 7.55355 10.365 7.55355 9.46687C7.55355 8.80202 8.21941 8.33542 9.33284 8.33542C10.5304 8.33542 11.3124 8.93419 11.3124 9.98154H14.4895C14.4885 7.52137 12.3768 5.8252 9.21669 5.8252C6.07265 5.8252 4.04404 7.35516 4.04404 9.7172C4.04404 12.7771 7.13802 13.0264 9.18365 13.3098C10.3972 13.476 11.3795 13.6753 11.3795 14.5404C11.3795 15.2723 10.6475 15.6879 9.51708 15.6879C8.08624 15.6879 7.27219 15.039 7.25517 14.0418H3.96094C3.96094 16.5029 6.12272 18.2161 9.38291 18.2161C10.3271 18.2161 11.1782 18.093 11.9142 17.8617L13.8516 11.9461C12.8674 11.133 11.3574 10.8987 10.1148 10.7145Z" fill="white"/>
</svg>
