<svg width="416" height="126" viewBox="0 0 416 126" fill="none" xmlns="http://www.w3.org/2000/svg">
<path d="M62.8036 49.5896C48.7122 47.5686 36.6644 46.0453 36.6644 36.9358C36.6644 30.1925 43.4598 25.46 54.8229 25.46C67.0444 25.46 75.0251 31.533 75.0251 42.1557H107.449C107.439 17.2035 85.8875 0 53.6375 0C21.5511 0 0.848145 15.5177 0.848145 39.4747C0.848145 70.51 32.4237 73.0388 53.3003 75.9128C65.6853 77.5986 75.7097 79.6196 75.7097 88.394C75.7097 95.8177 68.2399 100.032 56.7031 100.032C42.1007 100.032 33.793 93.4514 33.6193 83.3365H0C0 108.299 22.062 125.675 55.3338 125.675C64.97 125.675 73.6558 124.426 81.1665 122.08L100.94 62.0809C90.8946 53.8346 75.4849 51.4582 62.8036 49.5896Z" fill="#0F1C4C"/>
<path d="M194.879 36.3462C169.435 36.3462 153.075 48.4922 153.075 67.3816H182.975C182.975 60.161 187.767 55.8855 194.542 55.8855C201.644 55.8855 205.772 60.1508 205.772 66.3965V70.1744L190.904 71.982C162.987 75.7599 149.601 84.4632 149.601 100.875C149.601 116.311 161.168 125.177 178.019 125.177C189.085 125.177 199.335 121.074 204.127 113.193H205.782V123.207H223.706L236.847 83.336V67.5441C236.847 48.5024 220.16 36.3462 194.879 36.3462ZM205.782 91.5213C205.782 100.225 199.335 106.633 190.087 106.633C183.312 106.633 179.347 103.18 179.347 97.9295C179.347 93.004 182.985 89.5512 192.069 88.4036L205.782 86.4334V91.5213Z" fill="#0F1C4C"/>
<path d="M133.189 0.72168H164.08L123.727 123.208H92.826L133.189 0.72168Z" fill="#00E889"/>
<path d="M292.15 70.175C280.746 68.8649 270.671 68.5298 270.671 62.1318C270.671 57.5313 275.627 54.4136 282.565 54.4136C290.495 54.4136 296.115 58.3539 296.279 64.2645H323.705C323.705 46.8578 306.191 35.8594 282.565 35.8594C258.276 35.8594 242.253 47.0203 242.253 64.9246C242.253 88.4042 264.887 89.7143 280.256 91.197C289.177 92.0196 296.442 93.0047 296.442 99.0777C296.442 104.166 291.323 107.283 284.047 107.283C274.298 107.283 268.024 102.52 268.024 95.2998H241.752C241.752 114.352 257.775 126 283.383 126C294.848 126 304.423 123.918 311.678 120.12L323.808 83.3366C317.574 73.831 303.759 71.4038 292.15 70.175Z" fill="#0F1C4C"/>
<path d="M416 70.338C416 50.6362 403.605 36.3474 385.937 36.3474C375.861 36.3474 368.586 40.9478 361.974 50.6362H360.319V0.72168H329.428V123.208H360.319V76.5735C360.319 68.0327 365.775 62.1222 373.041 62.1222C380.306 62.1222 384.935 67.8702 384.935 75.9134V123.198H402.859L416 83.3371V70.338Z" fill="#0F1C4C"/>
</svg>
