<svg width="132" height="40" viewBox="0 0 132 40" fill="none" xmlns="http://www.w3.org/2000/svg">
<path d="M19.8146 15.7427C15.3687 15.1012 11.5677 14.6176 11.5677 11.7256C11.5677 9.58491 13.7116 8.08253 17.2967 8.08253C21.1526 8.08253 23.6705 10.0105 23.6705 13.3828H33.9002C33.897 5.46143 27.0976 0 16.9227 0C6.79939 0 0.267591 4.92625 0.267591 12.5316C0.267591 22.3841 10.2297 23.1869 16.8163 24.0993C20.7238 24.6345 23.8865 25.2761 23.8865 28.0616C23.8865 30.4183 21.5298 31.7563 17.8899 31.7563C13.2828 31.7563 10.6617 29.6671 10.6069 26.456H0C0 34.3806 6.96059 39.8968 17.4579 39.8968C20.4981 39.8968 23.2385 39.5003 25.6081 38.7555L31.8465 19.7082C28.6774 17.0904 23.8156 16.3359 19.8146 15.7427Z" fill="#0F1C4C"/>
<path d="M61.4847 11.5385C53.457 11.5385 48.2954 15.3944 48.2954 21.391H57.7288C57.7288 19.0987 59.2408 17.7414 61.3783 17.7414C63.619 17.7414 64.9215 19.0955 64.9215 21.0783V22.2776L60.2306 22.8515C51.4226 24.0508 47.1992 26.8137 47.1992 32.0237C47.1992 36.9242 50.8488 39.7387 56.1651 39.7387C59.6567 39.7387 62.8904 38.4362 64.4024 35.9344H64.9247V39.1133H70.5796L74.7256 26.4559V21.4426C74.7256 15.3976 69.4608 11.5385 61.4847 11.5385ZM64.9247 29.0544C64.9247 31.8174 62.8904 33.8517 59.9727 33.8517C57.8352 33.8517 56.5842 32.7556 56.5842 31.0888C56.5842 29.5251 57.732 28.429 60.5981 28.0647L64.9247 27.4392V29.0544Z" fill="#0F1C4C"/>
<path d="M42.0219 0.22908H51.768L39.0364 39.1136H29.2871L42.0219 0.22908Z" fill="#00E889"/>
<path d="M92.1741 22.2777C88.5762 21.8618 85.3973 21.7554 85.3973 19.7243C85.3973 18.2639 86.9609 17.2741 89.15 17.2741C91.6518 17.2741 93.425 18.525 93.4766 20.4014H102.13C102.13 14.8754 96.6039 11.3839 89.15 11.3839C81.4866 11.3839 76.4314 14.927 76.4314 20.6109C76.4314 28.0648 83.5725 28.4807 88.4214 28.9514C91.236 29.2125 93.5282 29.5252 93.5282 31.4532C93.5282 33.0684 91.913 34.0582 89.6175 34.0582C86.5418 34.0582 84.5623 32.5461 84.5623 30.2539H76.2734C76.2734 36.3021 81.3287 40 89.408 40C93.0253 40 96.0462 39.3391 98.3352 38.1333L102.162 26.456C100.195 23.4383 95.8366 22.6678 92.1741 22.2777Z" fill="#0F1C4C"/>
<path d="M131.248 22.3295C131.248 16.075 127.337 11.5388 121.763 11.5388C118.584 11.5388 116.289 12.9993 114.203 16.075H113.681V0.22908H103.935V39.1136H113.681V24.309C113.681 21.5977 115.402 19.7213 117.695 19.7213C119.987 19.7213 121.447 21.5461 121.447 24.0995V39.1104H127.102L131.248 26.4562V22.3295Z" fill="#0F1C4C"/>
</svg>
