<svg width="28" height="28" viewBox="0 0 28 28" fill="none" xmlns="http://www.w3.org/2000/svg">
<path fill-rule="evenodd" clip-rule="evenodd" d="M15.0383 1.69152L24.3716 6.35818C25.1646 6.7522 25.6662 7.56108 25.6666 8.44652V19.5649C25.6662 20.4503 25.1646 21.2592 24.3716 21.6532L15.0383 26.3199C14.381 26.6487 13.6072 26.6487 12.95 26.3199L3.61664 21.6532C2.82447 21.254 2.32714 20.4402 2.33331 19.5532V8.44652C2.33378 7.56108 2.83537 6.7522 3.62831 6.35818L12.9616 1.69152C13.6157 1.3665 14.3842 1.3665 15.0383 1.69152Z" stroke="#0F1C4C" stroke-width="2" stroke-linecap="round" stroke-linejoin="round"/>
<path d="M2.70667 7.18652L14 12.8332L25.2933 7.18652" stroke="#0F1C4C" stroke-width="2" stroke-linecap="round" stroke-linejoin="round"/>
<path d="M14 26.5535V12.8335" stroke="#0F1C4C" stroke-width="2" stroke-linecap="round" stroke-linejoin="round"/>
<path d="M8.16663 4.0835L19.8333 9.91683" stroke="#0F1C4C" stroke-width="2" stroke-linecap="round" stroke-linejoin="round"/>
</svg>
