<svg width="16" height="24" viewBox="0 0 16 24" fill="none" xmlns="http://www.w3.org/2000/svg">
<path fill-rule="evenodd" clip-rule="evenodd" d="M7.367 0.25H7.4H8.6H8.633C9.72515 0.249995 10.5906 0.24999 11.2883 0.306988C12.0017 0.365274 12.6053 0.486882 13.1565 0.767719C14.0502 1.22312 14.7769 1.94978 15.2323 2.84355C15.5131 3.39472 15.6347 3.99834 15.693 4.71173C15.75 5.40935 15.75 6.27483 15.75 7.36695V7.36697V7.36698V7.4V16.6V16.633C15.75 17.7252 15.75 18.5906 15.693 19.2883C15.6347 20.0017 15.5131 20.6053 15.2323 21.1565C14.7769 22.0502 14.0502 22.7769 13.1565 23.2323C12.6053 23.5131 12.0017 23.6347 11.2883 23.693C10.5906 23.75 9.72515 23.75 8.63302 23.75H8.6H7.4H7.36698C6.27485 23.75 5.40935 23.75 4.71173 23.693C3.99834 23.6347 3.39472 23.5131 2.84355 23.2323C1.94978 22.7769 1.22312 22.0502 0.767719 21.1565C0.486882 20.6053 0.365274 20.0017 0.306988 19.2883C0.24999 18.5906 0.249994 17.7251 0.25 16.633V16.6V7.4V7.367C0.249994 6.27485 0.24999 5.40936 0.306988 4.71173C0.365274 3.99834 0.486882 3.39472 0.767719 2.84355C1.22312 1.94978 1.94978 1.22312 2.84355 0.767719C3.39472 0.486882 3.99834 0.365274 4.71173 0.306988C5.40935 0.24999 6.27485 0.249995 7.36699 0.25H7.367ZM4.83388 1.80201C4.21325 1.85271 3.829 1.94909 3.52453 2.10423C2.913 2.41582 2.41582 2.913 2.10423 3.52453C1.94909 3.829 1.85271 4.21325 1.80201 4.83388C1.75058 5.46326 1.75 6.26752 1.75 7.4V16.6C1.75 17.7325 1.75058 18.5367 1.80201 19.1661C1.85271 19.7867 1.94909 20.171 2.10423 20.4755C2.41582 21.087 2.913 21.5842 3.52453 21.8958C3.829 22.0509 4.21325 22.1473 4.83388 22.198C5.46326 22.2494 6.26752 22.25 7.4 22.25H8.6C9.73248 22.25 10.5367 22.2494 11.1661 22.198C11.7867 22.1473 12.171 22.0509 12.4755 21.8958C13.087 21.5842 13.5842 21.087 13.8958 20.4755C14.0509 20.171 14.1473 19.7867 14.198 19.1661C14.2494 18.5367 14.25 17.7325 14.25 16.6V7.4C14.25 6.26752 14.2494 5.46327 14.198 4.83388C14.1473 4.21325 14.0509 3.829 13.8958 3.52453C13.5842 2.913 13.087 2.41582 12.4755 2.10423C12.171 1.94909 11.7867 1.85271 11.1661 1.80201C10.5367 1.75058 9.73248 1.75 8.6 1.75H7.4C6.26752 1.75 5.46326 1.75058 4.83388 1.80201ZM5.25 19C5.25 18.5858 5.58579 18.25 6 18.25H10C10.4142 18.25 10.75 18.5858 10.75 19C10.75 19.4142 10.4142 19.75 10 19.75H6C5.58579 19.75 5.25 19.4142 5.25 19ZM8 6C8.55229 6 9 5.55229 9 5C9 4.44772 8.55229 4 8 4C7.44772 4 7 4.44772 7 5C7 5.55229 7.44772 6 8 6Z" fill="#0F1C4C"/>
</svg>
