<svg width="28" height="28" viewBox="0 0 28 28" fill="none" xmlns="http://www.w3.org/2000/svg">
<path fill-rule="evenodd" clip-rule="evenodd" d="M14 17.5C15.933 17.5 17.5 15.933 17.5 14C17.5 12.067 15.933 10.5 14 10.5C12.067 10.5 10.5 12.067 10.5 14C10.5 15.933 12.067 17.5 14 17.5Z" stroke="#0F1C4C" stroke-width="2" stroke-linecap="round" stroke-linejoin="round"/>
<path fill-rule="evenodd" clip-rule="evenodd" d="M22.6333 17.4998C22.3156 18.2198 22.468 19.0606 23.0183 19.6232L23.0883 19.6932C23.5264 20.1308 23.7726 20.7247 23.7726 21.344C23.7726 21.9633 23.5264 22.5572 23.0883 22.9948C22.6506 23.433 22.0567 23.6792 21.4375 23.6792C20.8182 23.6792 20.2243 23.433 19.7866 22.9948L19.7166 22.9248C19.1541 22.3746 18.3132 22.2221 17.5933 22.5398C16.8881 22.8421 16.4297 23.5343 16.4266 24.3015V24.4998C16.4266 25.7885 15.382 26.8332 14.0933 26.8332C12.8046 26.8332 11.76 25.7885 11.76 24.4998V24.3948C11.7415 23.6046 11.2418 22.906 10.5 22.6332C9.78002 22.3154 8.93918 22.4679 8.37663 23.0182L8.30663 23.0882C7.86897 23.5263 7.27508 23.7725 6.65579 23.7725C6.0365 23.7725 5.44262 23.5263 5.00496 23.0882C4.56681 22.6505 4.32062 22.0566 4.32062 21.4373C4.32062 20.8181 4.56681 20.2242 5.00496 19.7865L5.07496 19.7165C5.62524 19.154 5.7777 18.3131 5.45996 17.5932C5.15771 16.888 4.46554 16.4296 3.69829 16.4265H3.49996C2.21129 16.4265 1.16663 15.3818 1.16663 14.0932C1.16663 12.8045 2.21129 11.7598 3.49996 11.7598H3.60496C4.39518 11.7414 5.09378 11.2417 5.36663 10.4998C5.68436 9.7799 5.5319 8.93906 4.98163 8.3765L4.91163 8.3065C4.47348 7.86884 4.22729 7.27496 4.22729 6.65567C4.22729 6.03638 4.47348 5.4425 4.91163 5.00484C5.34929 4.56669 5.94317 4.3205 6.56246 4.3205C7.18175 4.3205 7.77563 4.56669 8.21329 5.00484L8.28329 5.07484C8.84584 5.62511 9.68669 5.77758 10.4066 5.45984H10.5C11.2052 5.15759 11.6636 4.46542 11.6666 3.69817V3.49984C11.6666 2.21117 12.7113 1.1665 14 1.1665C15.2886 1.1665 16.3333 2.21117 16.3333 3.49984V3.60484C16.3364 4.37209 16.7947 5.06426 17.5 5.3665C18.2199 5.68424 19.0607 5.53178 19.6233 4.9815L19.6933 4.9115C20.131 4.47336 20.7248 4.22717 21.3441 4.22717C21.9634 4.22717 22.5573 4.47336 22.995 4.9115C23.4331 5.34916 23.6793 5.94305 23.6793 6.56234C23.6793 7.18163 23.4331 7.77551 22.995 8.21317L22.925 8.28317C22.3747 8.84572 22.2222 9.68657 22.54 10.4065V10.4998C22.8422 11.2051 23.5344 11.6634 24.3016 11.6665H24.5C25.7886 11.6665 26.8333 12.7112 26.8333 13.9998C26.8333 15.2885 25.7886 16.3332 24.5 16.3332H24.395C23.6277 16.3362 22.9355 16.7946 22.6333 17.4998Z" stroke="#0F1C4C" stroke-width="2" stroke-linecap="round" stroke-linejoin="round"/>
</svg>
