<svg width="28" height="28" viewBox="0 0 28 28" fill="none" xmlns="http://www.w3.org/2000/svg">
<path fill-rule="evenodd" clip-rule="evenodd" d="M9.33333 26.8332C10.622 26.8332 11.6667 25.7885 11.6667 24.4998C11.6667 23.2112 10.622 22.1665 9.33333 22.1665C8.04467 22.1665 7 23.2112 7 24.4998C7 25.7885 8.04467 26.8332 9.33333 26.8332Z" stroke="#0F1C4C" stroke-width="2" stroke-linecap="round" stroke-linejoin="round"/>
<path fill-rule="evenodd" clip-rule="evenodd" d="M23.3333 26.8332C24.622 26.8332 25.6667 25.7885 25.6667 24.4998C25.6667 23.2112 24.622 22.1665 23.3333 22.1665C22.0447 22.1665 21 23.2112 21 24.4998C21 25.7885 22.0447 26.8332 23.3333 26.8332Z" stroke="#0F1C4C" stroke-width="2" stroke-linecap="round" stroke-linejoin="round"/>
<path d="M6.61496 6.99984H26.8333L24.8733 16.7882C24.6531 17.8968 23.67 18.6882 22.54 18.6665H10.2083C9.02935 18.6765 8.02818 17.8055 7.87496 16.6365L6.10163 3.1965C5.94952 2.03637 4.96169 1.16828 3.79163 1.1665H1.16663" stroke="#0F1C4C" stroke-width="2" stroke-linecap="round" stroke-linejoin="round"/>
</svg>
