<svg width="30" height="29" viewBox="0 0 30 29" fill="none" xmlns="http://www.w3.org/2000/svg">
<path d="M14.2874 1.39629C14.5843 0.814487 15.4157 0.814487 15.7126 1.39629L19.6113 9.03592C19.7276 9.2637 19.9457 9.42218 20.1982 9.46234L28.6688 10.8095C29.3138 10.9121 29.5707 11.7027 29.1092 12.1649L23.0482 18.2336C22.8675 18.4146 22.7842 18.671 22.824 18.9236L24.1603 27.3958C24.2621 28.041 23.5895 28.5297 23.0074 28.2335L15.3627 24.3445C15.1348 24.2286 14.8652 24.2286 14.6373 24.3445L6.99264 28.2335C6.41046 28.5297 5.7379 28.041 5.83967 27.3958L7.17597 18.9236C7.21581 18.671 7.1325 18.4146 6.95179 18.2336L0.890847 12.1649C0.429273 11.7027 0.686165 10.9121 1.33124 10.8095L9.80175 9.46234C10.0543 9.42218 10.2724 9.2637 10.3887 9.03592L14.2874 1.39629Z" fill="#FFAF00"/>
</svg>
